<svg xmlns="http://www.w3.org/2000/svg" width="32" height="31" viewBox="0 0 32 31"><path fill="#FF7100" d="M15.9634857,19.4668136 C19.937985,19.4668136 23.2674427,18.1148665 23.4694255,16.3449261 C22.8765083,14.6860152 22.2314666,12.8703568 21.5994561,11.0906196 C21.1596549,12.3576618 18.7326041,13.2589599 15.9667435,13.2589599 C13.2008828,13.2589599 10.7705742,12.3576618 10.3340308,11.0906196 C9.7020203,12.8703568 9.05372081,14.6827496 8.46406148,16.3449261 C8.66278645,18.1148665 11.9889863,19.4668136 15.9634857,19.4668136 L15.9634857,19.4668136 Z M20.0748121,6.80945383 C19.374388,4.84031349 18.7749553,3.14874684 18.3937943,2.08090456 C18.139687,1.36900972 16.996021,0.429285786 15.9633028,0.429285786 C14.9305845,0.429285786 13.7840266,1.36900972 13.5331771,2.08090456 C13.1552738,3.14548126 12.5525834,4.83704792 11.8521593,6.80945383 C12.360374,7.7107519 14.0967741,8.29202384 15.9634857,8.29202384 C17.8334551,8.29202384 19.5665974,7.7107519 20.0748121,6.80945383 Z M30.5616264,21.1126623 L24.3164499,18.5883746 L25.0364207,20.5999673 C25.0005851,22.7323863 20.8729697,24.4304841 15.9602279,24.4304841 C11.0507438,24.4304841 6.91987074,22.7323863 6.88403509,20.5999673 L7.60400588,18.5883746 L1.36208721,21.1126623 C-0.387344067,21.818026 -0.462273153,23.1275206 1.19919789,24.019022 L12.9435177,30.331374 C14.601731,31.2228753 17.3219826,31.2228753 18.9834536,30.331374 L30.7277735,24.019022 C32.3892445,23.1307862 32.3143154,21.8212915 30.5616264,21.1126623 L30.5616264,21.1126623 Z"/></svg>