<svg xmlns="http://www.w3.org/2000/svg" width="19" height="15" viewBox="0 0 19 15"><path fill="#A4A4A6" d="M1.87956989,11.620438 L15.8611926,11.620438 C17.086999,11.620438 17.7333333,10.9854015 17.7333333,9.7810219 L17.7333333,1.83941606 C17.7333333,0.635036496 17.086999,0 15.8611926,0 L1.87956989,0 C0.646334311,0 0,0.635036496 0,1.83941606 L0,9.7810219 C0,10.9854015 0.646334311,11.620438 1.87956989,11.620438 Z M1.9315738,10.3941606 C1.47839687,10.3941606 1.24809384,10.1751825 1.24809384,9.72992701 L1.24809384,1.89051095 C1.24809384,1.44525547 1.47839687,1.2189781 1.9315738,1.2189781 L15.8091887,1.2189781 C16.2623656,1.2189781 16.4852395,1.44525547 16.4852395,1.89051095 L16.4852395,9.72992701 C16.4852395,10.1751825 16.2623656,10.3941606 15.8091887,10.3941606 L1.9315738,10.3941606 Z M5.30439883,14.189781 L12.4363636,14.189781 C12.7706745,14.189781 13.0381232,13.919708 13.0381232,13.5985401 C13.0381232,13.270073 12.7706745,13 12.4363636,13 L5.30439883,13 C4.97008798,13 4.69521017,13.270073 4.69521017,13.5985401 C4.69521017,13.919708 4.97008798,14.189781 5.30439883,14.189781 Z" transform="translate(.883)"/></svg>