<svg xmlns="http://www.w3.org/2000/svg" width="17" height="15" viewBox="0 0 17 15"><path fill="#A4A4A6" d="M4.49695122,15 C4.87804878,15 5.15243902,14.8101266 5.61737805,14.4 L8.10213415,12.2050633 L12.5914634,12.2050633 C14.7408537,12.2050633 15.9375,10.9898734 15.9375,8.87088608 L15.9375,3.33417722 C15.9375,1.21518987 14.7408537,0 12.5914634,0 L3.34603659,0 C1.18902439,0 0,1.20759494 0,3.33417722 L0,8.87088608 C0,10.9974684 1.20426829,12.2050633 3.32317073,12.2050633 L3.64329268,12.2050633 L3.64329268,14.0278481 C3.64329268,14.6202532 3.95579268,15 4.49695122,15 Z M4.82469512,13.5417722 L4.82469512,11.4835443 C4.82469512,11.0734177 4.6570122,10.9139241 4.25304878,10.9139241 L3.36890244,10.9139241 C1.95884146,10.9139241 1.29573171,10.2075949 1.29573171,8.84810127 L1.29573171,3.35696203 C1.29573171,1.99746835 1.95884146,1.29113924 3.36890244,1.29113924 L12.5609756,1.29113924 C13.9710366,1.29113924 14.6417683,1.99746835 14.6417683,3.35696203 L14.6417683,8.84810127 C14.6417683,10.2075949 13.9710366,10.9139241 12.5609756,10.9139241 L8.04115854,10.9139241 C7.62195122,10.9139241 7.40853659,10.9822785 7.11890244,11.278481 L4.82469512,13.5417722 Z M4.27591463,5.14177215 L11.5777439,5.14177215 C11.8140244,5.14177215 12.0045732,4.95189873 12.0045732,4.70126582 C12.0045732,4.47341772 11.8140244,4.2835443 11.5777439,4.2835443 L4.27591463,4.2835443 C4.03963415,4.2835443 3.84908537,4.47341772 3.84908537,4.70126582 C3.84908537,4.95189873 4.03963415,5.14177215 4.27591463,5.14177215 Z M4.27591463,7.82278481 L9.02439024,7.82278481 C9.26829268,7.82278481 9.45884146,7.63291139 9.45884146,7.38987342 C9.45884146,7.14683544 9.26829268,6.95696203 9.02439024,6.95696203 L4.27591463,6.95696203 C4.03963415,6.95696203 3.84908537,7.14683544 3.84908537,7.38987342 C3.84908537,7.63291139 4.03963415,7.82278481 4.27591463,7.82278481 Z" transform="translate(.883)"/></svg>