<svg xmlns="http://www.w3.org/2000/svg" width="18" height="19" viewBox="0 0 18 19"><path fill="#A4A4A6" d="M1.00134862,10.2110463 L4.54083783,10.2110463 L4.54083783,13.2016165 C4.54083783,14.1378536 4.98588166,15 5.1597269,15 C5.33357215,15 5.77166217,14.1378536 5.77166217,13.2016165 L5.77166217,10.2110463 L9.31115138,10.2110463 C9.92308665,10.2110463 10.3125,9.84059273 10.3125,9.28154468 C10.3125,7.92096991 9.19293661,6.56713067 7.47534558,5.90704984 L7.25977748,2.90300853 C8.10118847,2.37090256 8.88696898,1.7714414 9.22075185,1.34710373 C9.3945971,1.12483161 9.47804282,0.902559497 9.47804282,0.707229457 C9.47804282,0.303098339 9.15816757,1.3093267e-14 8.67835469,1.3093267e-14 L1.63414531,1.3093267e-14 C1.15433243,1.3093267e-14 0.834457181,0.303098339 0.834457181,0.707229457 C0.834457181,0.902559497 0.9179029,1.12483161 1.09870196,1.34710373 C1.43248483,1.7714414 2.21826534,2.37090256 3.05967633,2.90300853 L2.84410823,5.90704984 C1.12651719,6.56713067 -2.14382941e-14,7.92096991 -2.14382941e-14,9.28154468 C-2.14382941e-14,9.84059273 0.396367161,10.2110463 1.00134862,10.2110463 Z M5.1597269,5.48944769 C4.74945212,5.48944769 4.35308496,5.52312528 3.97757923,5.59048047 L4.17228591,2.41131567 C4.17923972,2.31701841 4.15837829,2.2766053 4.08884019,2.23619219 C3.15007586,1.7714414 2.42687964,1.22586439 2.35038773,1.09115402 C2.29475725,1.0103278 2.34343392,0.956443646 2.41297202,0.956443646 L7.89952798,0.956443646 C7.96906608,0.956443646 8.02469656,1.0103278 7.96906608,1.09115402 C7.89257417,1.22586439 7.16242414,1.7714414 6.22365981,2.23619219 C6.15412171,2.2766053 6.13326028,2.31701841 6.1471679,2.41131567 L6.34187458,5.59048047 C5.96636885,5.52312528 5.57000169,5.48944769 5.1597269,5.48944769 Z M1.28645482,9.18724742 C1.14737862,9.18724742 1.08479434,9.11315671 1.10565577,8.94476875 C1.25863958,7.8064661 2.78847775,6.47956893 5.1597269,6.47956893 C7.52402225,6.47956893 9.06081423,7.8064661 9.20684423,8.94476875 C9.23465947,9.11315671 9.17207519,9.18724742 9.03299899,9.18724742 L1.28645482,9.18724742 Z" transform="rotate(36 3.704 14.1)"/></svg>