<svg xmlns="http://www.w3.org/2000/svg" width="166.997" height="25" viewBox="0 0 166.997 25"><path fill="#9C9488" d="M35.9375,0 C39.1016314,0 41.6666667,2.56503529 41.6666667,5.72916667 C41.6666667,8.89329805 39.1016314,11.4583333 35.9375,11.4583333 C34.7771625,11.4583333 33.6973919,11.1133859 32.7951406,10.5204435 L30.51,12.5 L32.7951406,14.4795565 C33.6973919,13.8866141 34.7771625,13.5416667 35.9375,13.5416667 C39.1016314,13.5416667 41.6666667,16.106702 41.6666667,19.2708333 C41.6666667,22.4349647 39.1016314,25 35.9375,25 C32.7733686,25 30.2083333,22.4349647 30.2083333,19.2708333 C30.2083333,18.4022253 30.4016334,17.578765 30.7475631,16.8411227 L28.124,14.567 L25.5019716,16.8401308 C25.8481933,17.5780268 26.0416667,18.401836 26.0416667,19.2708333 C26.0416667,22.4349647 23.4766314,25 20.3125,25 C17.1483686,25 14.5833333,22.4349647 14.5833333,19.2708333 C14.5833333,16.106702 17.1483686,13.5416667 20.3125,13.5416667 C21.4728375,13.5416667 22.5526081,13.8866141 23.4548594,14.4795565 L25.739,12.5 L23.4548594,10.5204435 C22.5526081,11.1133859 21.4728375,11.4583333 20.3125,11.4583333 C19.2224524,11.4583333 18.2035062,11.1539119 17.3360405,10.625448 L10.8329092,16.6652458 C11.2327698,17.4469141 11.4583333,18.3325321 11.4583333,19.2708333 C11.4583333,22.4349647 8.89329805,25 5.72916667,25 C2.56503529,25 0,22.4349647 0,19.2708333 C0,16.106702 2.56503529,13.5416667 5.72916667,13.5416667 C6.81921429,13.5416667 7.83816047,13.8460881 8.70562614,14.374552 L15.209266,8.33574822 C14.8090881,7.55383669 14.5833333,6.66786561 14.5833333,5.72916667 C14.5833333,2.56503529 17.1483686,0 20.3125,0 C23.4766314,0 26.0416667,2.56503529 26.0416667,5.72916667 C26.0416667,6.59816399 25.8481933,7.42197318 25.5019716,8.15986918 L28.124,10.432 L30.7480284,8.15986918 C30.4018067,7.42197318 30.2083333,6.59816399 30.2083333,5.72916667 C30.2083333,2.56503529 32.7733686,0 35.9375,0 Z M20.3125,16.6666667 C18.8742585,16.6666667 17.7083333,17.8325918 17.7083333,19.2708333 C17.7083333,20.7090749 18.8742585,21.875 20.3125,21.875 C21.7507415,21.875 22.9166667,20.7090749 22.9166667,19.2708333 C22.9166667,17.8325918 21.7507415,16.6666667 20.3125,16.6666667 Z M5.72916667,16.6666667 C4.29092513,16.6666667 3.125,17.8325918 3.125,19.2708333 C3.125,20.7090749 4.29092513,21.875 5.72916667,21.875 C7.1674082,21.875 8.33333333,20.7090749 8.33333333,19.2708333 C8.33333333,17.8325918 7.1674082,16.6666667 5.72916667,16.6666667 Z M35.9375,16.6666667 C34.4992585,16.6666667 33.3333333,17.8325918 33.3333333,19.2708333 C33.3333333,20.7090749 34.4992585,21.875 35.9375,21.875 C37.3757415,21.875 38.5416667,20.7090749 38.5416667,19.2708333 C38.5416667,17.8325918 37.3757415,16.6666667 35.9375,16.6666667 Z M20.3125,3.125 C18.8742585,3.125 17.7083333,4.29092513 17.7083333,5.72916667 C17.7083333,7.1674082 18.8742585,8.33333333 20.3125,8.33333333 C21.7507415,8.33333333 22.9166667,7.1674082 22.9166667,5.72916667 C22.9166667,4.29092513 21.7507415,3.125 20.3125,3.125 Z M35.9375,3.125 C34.4992585,3.125 33.3333333,4.29092513 33.3333333,5.72916667 C33.3333333,7.1674082 34.4992585,8.33333333 35.9375,8.33333333 C37.3757415,8.33333333 38.5416667,7.1674082 38.5416667,5.72916667 C38.5416667,4.29092513 37.3757415,3.125 35.9375,3.125 Z M49.8062212,15.1906941 L49.8062212,18.8176281 C49.4743449,18.8966463 49.1345668,18.9480081 48.7868868,18.9717136 C48.4392069,18.995419 48.1152324,19.0072717 47.8149633,19.0072717 C47.4988907,19.0072717 47.1709653,18.995419 46.8311871,18.9717136 C46.491409,18.9480081 46.1476799,18.8966463 45.8,18.8176281 L45.8,6.60932083 L54.8554823,6.60932083 C54.9345005,6.92539351 54.9858623,7.21776074 55.0095677,7.48642251 C55.0332732,7.75508429 55.0451259,8.01584425 55.0451259,8.2687024 C55.0451259,8.52156054 55.0332732,8.78627141 55.0095677,9.06283501 C54.9858623,9.33939861 54.9345005,9.63571674 54.8554823,9.95178942 L49.8062212,9.95178942 L49.8062212,11.8482255 L53.8835588,11.8482255 C53.962577,12.1642982 54.0139388,12.4566654 54.0376442,12.7253272 C54.0613497,12.993989 54.0732024,13.2547489 54.0732024,13.5076071 C54.0732024,13.7604652 54.0613497,14.0251761 54.0376442,14.3017397 C54.0139388,14.5783033 53.962577,14.8746214 53.8835588,15.1906941 L49.8062212,15.1906941 Z M56.4822689,14.8588178 C56.4822689,14.0844397 56.648207,13.4443925 56.9800834,12.9386763 C57.3119597,12.43296 57.7386578,12.0299673 58.2601777,11.7296983 C58.7816976,11.4294292 59.3585303,11.2200311 59.9906756,11.1015038 C60.622821,10.9829765 61.2391627,10.9237129 61.8397008,10.9237129 L63.2857333,10.9237129 C63.2699297,10.6392475 63.1909115,10.402193 63.0486788,10.2125494 C62.9064461,10.0229058 62.7247043,9.87672216 62.5034535,9.77399854 C62.2822026,9.67127492 62.0372462,9.60015857 61.7685845,9.56064948 C61.4999227,9.5211404 61.2233591,9.50138585 60.9388937,9.50138585 C60.5596065,9.50138585 60.1171047,9.54484585 59.6113884,9.63176584 C59.1056721,9.71868582 58.5841522,9.85696762 58.0468287,10.0466112 C57.9045959,9.77794945 57.7821178,9.53299312 57.6793942,9.31174225 C57.5766705,9.09049137 57.4976524,8.86528958 57.4423397,8.63613689 C57.3870269,8.4069842 57.3475178,8.16992969 57.3238124,7.92497336 C57.3001069,7.68001703 57.2882542,7.39950253 57.2882542,7.08342985 C58.0468287,6.8305717 58.8014522,6.64092809 59.5521248,6.51449902 C60.3027974,6.38806995 60.9784028,6.32485541 61.5789409,6.32485541 C62.4007298,6.32485541 63.1435006,6.42362813 63.8072533,6.62117355 C64.4710059,6.81871898 65.0359858,7.12293893 65.502193,7.53383342 C65.9684002,7.9447279 66.3279329,8.47019873 66.580791,9.11024591 C66.8336492,9.75029309 66.9600782,10.5128184 66.9600782,11.3978219 L66.9600782,18.3435191 C66.3595402,18.5173591 65.632573,18.691199 64.7791768,18.865039 C63.9257805,19.038879 63.0249734,19.125799 62.0767553,19.125799 C61.2549664,19.125799 60.5003428,19.0507317 59.8128848,18.9005972 C59.1254267,18.7504627 58.5367413,18.5094573 58.0468287,18.1775809 C57.556916,17.8457046 57.1736779,17.4071538 56.8971143,16.8619284 C56.6205507,16.316703 56.4822689,15.6489995 56.4822689,14.8588178 Z M62.0767553,16.1863231 C62.218988,16.1863231 62.4244353,16.1705194 62.6930971,16.1389122 C62.9617588,16.1073049 63.1593043,16.0756976 63.2857333,16.0440903 L63.2857333,13.4364907 L61.9345226,13.4364907 C61.3813954,13.4364907 60.9151882,13.555018 60.535901,13.7920725 C60.1566138,14.029127 59.9669702,14.3610033 59.9669702,14.7877014 C59.9669702,15.1037741 60.0380865,15.3526814 60.1803192,15.5344231 C60.322552,15.7161649 60.5003428,15.8544467 60.7136919,15.9492685 C60.927041,16.0440903 61.1561936,16.1073049 61.40115,16.1389122 C61.6461063,16.1705194 61.8713081,16.1863231 62.0767553,16.1863231 Z M75.7696165,11.1844729 C76.2437255,11.310902 76.6743745,11.4649874 77.0615636,11.6467292 C77.4487526,11.828471 77.7806289,12.0615746 78.0571925,12.34604 C78.3337561,12.6305054 78.5510561,12.9781853 78.7090924,13.3890798 C78.8671288,13.7999743 78.9461469,14.2977888 78.9461469,14.8825232 C78.9461469,15.4830613 78.8236688,16.0440903 78.5787124,16.5656103 C78.3337561,17.0871302 77.9702725,17.5375338 77.4882617,17.916821 C77.0062509,18.2961082 76.4136146,18.5963772 75.7103529,18.8176281 C75.0070912,19.038879 74.1971549,19.1495044 73.2805441,19.1495044 C72.5219697,19.1495044 71.818708,19.0941917 71.170759,18.9835663 C70.52281,18.8729408 69.8353519,18.6832972 69.1083848,18.4146355 C69.1874029,17.3399883 69.4797702,16.2495376 69.9854864,15.1432832 C70.4912027,15.3803377 71.0206245,15.5581286 71.5737517,15.6766559 C72.1268789,15.7951831 72.680006,15.8544467 73.2331332,15.8544467 C73.4227768,15.8544467 73.6203223,15.8465449 73.8257695,15.8307413 C74.0312168,15.8149377 74.2129585,15.7793795 74.3709949,15.7240668 C74.5290312,15.668754 74.6594112,15.5936868 74.7621348,15.498865 C74.8648585,15.4040432 74.9162203,15.2776141 74.9162203,15.1195778 C74.9162203,14.9141305 74.8134966,14.7600451 74.6080494,14.6573215 C74.4026022,14.5545978 74.1655476,14.4637269 73.8968859,14.3847088 L72.2849152,13.9343052 C71.4473226,13.6972507 70.7519627,13.294258 70.1988355,12.7253272 C69.6457083,12.1563964 69.3691447,11.3820183 69.3691447,10.402193 C69.3691447,9.78585127 69.4955738,9.22482226 69.7484319,8.71910597 C70.0012901,8.21338968 70.3568718,7.78274065 70.8151772,7.42715889 C71.2734826,7.07157712 71.8147571,6.79896443 72.4390006,6.60932083 C73.0632442,6.41967722 73.7546532,6.32485541 74.5132276,6.32485541 C75.1137657,6.32485541 75.7696165,6.38806995 76.48078,6.51449902 C77.1919436,6.64092809 77.8952053,6.82266988 78.5905652,7.0597244 C78.5589579,7.56544068 78.4562343,8.10671515 78.2823943,8.68354779 C78.1085543,9.26038044 77.9110089,9.77004763 77.689758,10.2125494 C77.2630599,10.0387094 76.7494418,9.88067307 76.1489037,9.73844036 C75.5483656,9.59620766 74.9952384,9.52509131 74.4895221,9.52509131 C73.7467513,9.52509131 73.3753659,9.73053855 73.3753659,10.141433 C73.3753659,10.315273 73.4622859,10.4496039 73.6361259,10.5444257 C73.8099659,10.6392475 74.0075113,10.7182657 74.2287622,10.7814802 L75.7696165,11.1844729 Z M83.8679912,9.95178942 L80.3595845,9.95178942 C80.2805663,9.63571674 80.2292045,9.33939861 80.205499,9.06283501 C80.1817936,8.78627141 80.1699409,8.52156054 80.1699409,8.2687024 C80.1699409,8.01584425 80.1817936,7.75508429 80.205499,7.48642251 C80.2292045,7.21776074 80.2805663,6.92539351 80.3595845,6.60932083 L91.3826192,6.60932083 C91.4616374,6.92539351 91.5129992,7.21776074 91.5367046,7.48642251 C91.5604101,7.75508429 91.5722628,8.01584425 91.5722628,8.2687024 C91.5722628,8.52156054 91.5604101,8.78627141 91.5367046,9.06283501 C91.5129992,9.33939861 91.4616374,9.63571674 91.3826192,9.95178942 L87.8742124,9.95178942 L87.8742124,18.8413336 C87.463318,18.9045481 87.0919326,18.951959 86.7600562,18.9835663 C86.4281799,19.0151735 86.1279109,19.0309772 85.8592491,19.0309772 C85.5905873,19.0309772 85.2903183,19.0151735 84.958442,18.9835663 C84.6265657,18.951959 84.2630821,18.9045481 83.8679912,18.8413336 L83.8679912,9.95178942 Z M99.5284048,11.1844729 C100.002514,11.310902 100.433163,11.4649874 100.820352,11.6467292 C101.207541,11.828471 101.539417,12.0615746 101.815981,12.34604 C102.092544,12.6305054 102.309844,12.9781853 102.467881,13.3890798 C102.625917,13.7999743 102.704935,14.2977888 102.704935,14.8825232 C102.704935,15.4830613 102.582457,16.0440903 102.337501,16.5656103 C102.092544,17.0871302 101.729061,17.5375338 101.24705,17.916821 C100.765039,18.2961082 100.172403,18.5963772 99.4691412,18.8176281 C98.7658795,19.038879 97.9559432,19.1495044 97.0393325,19.1495044 C96.280758,19.1495044 95.5774963,19.0941917 94.9295473,18.9835663 C94.2815983,18.8729408 93.5941402,18.6832972 92.8671731,18.4146355 C92.9461912,17.3399883 93.2385585,16.2495376 93.7442748,15.1432832 C94.2499911,15.3803377 94.7794128,15.5581286 95.33254,15.6766559 C95.8856672,15.7951831 96.4387944,15.8544467 96.9919216,15.8544467 C97.1815652,15.8544467 97.3791106,15.8465449 97.5845578,15.8307413 C97.7900051,15.8149377 97.9717469,15.7793795 98.1297832,15.7240668 C98.2878195,15.668754 98.4181995,15.5936868 98.5209232,15.498865 C98.6236468,15.4040432 98.6750086,15.2776141 98.6750086,15.1195778 C98.6750086,14.9141305 98.572285,14.7600451 98.3668377,14.6573215 C98.1613905,14.5545978 97.924336,14.4637269 97.6556742,14.3847088 L96.0437035,13.9343052 C95.2061109,13.6972507 94.510751,13.294258 93.9576238,12.7253272 C93.4044966,12.1563964 93.127933,11.3820183 93.127933,10.402193 C93.127933,9.78585127 93.2543621,9.22482226 93.5072203,8.71910597 C93.7600784,8.21338968 94.1156602,7.78274065 94.5739656,7.42715889 C95.0322709,7.07157712 95.5735454,6.79896443 96.1977889,6.60932083 C96.8220325,6.41967722 97.5134415,6.32485541 98.2720159,6.32485541 C98.872554,6.32485541 99.5284048,6.38806995 100.239568,6.51449902 C100.950732,6.64092809 101.653994,6.82266988 102.349353,7.0597244 C102.317746,7.56544068 102.215023,8.10671515 102.041183,8.68354779 C101.867343,9.26038044 101.669797,9.77004763 101.448546,10.2125494 C101.021848,10.0387094 100.50823,9.88067307 99.907692,9.73844036 C99.3071539,9.59620766 98.7540268,9.52509131 98.2483105,9.52509131 C97.5055397,9.52509131 97.1341543,9.73053855 97.1341543,10.141433 C97.1341543,10.315273 97.2210743,10.4496039 97.3949142,10.5444257 C97.5687542,10.6392475 97.7662996,10.7182657 97.9875505,10.7814802 L99.5284048,11.1844729 Z M108.574998,14.0054216 C108.748838,14.6533706 109.053058,15.1116759 109.487657,15.3803377 C109.922257,15.6489995 110.495139,15.7833304 111.206303,15.7833304 C111.664608,15.7833304 112.178226,15.7280177 112.747157,15.6173922 C113.316088,15.5067668 113.877117,15.3408286 114.430244,15.1195778 C114.651495,15.5304722 114.845089,16.0203849 115.011028,16.5893157 C115.176966,17.1582465 115.267837,17.7508828 115.28364,18.3672245 C113.877117,18.8887445 112.438986,19.1495044 110.969248,19.1495044 C109.831386,19.1495044 108.855512,18.9914681 108.041625,18.6753954 C107.227738,18.3593227 106.563985,17.9207719 106.050367,17.3597429 C105.536749,16.7987139 105.157462,16.1310103 104.912505,15.3566323 C104.667549,14.5822542 104.545071,13.7367598 104.545071,12.820149 C104.545071,11.9193419 104.6715,11.0738474 104.924358,10.2836657 C105.177216,9.49348404 105.556503,8.80602596 106.06222,8.2212915 C106.567936,7.63655704 107.200081,7.17430074 107.958656,6.83452261 C108.71723,6.49474448 109.602234,6.32485541 110.613666,6.32485541 C111.451259,6.32485541 112.197981,6.46708812 112.853831,6.75155353 C113.509682,7.03601894 114.06676,7.42715889 114.525066,7.92497336 C114.983371,8.42278783 115.335002,9.02332592 115.579958,9.72658764 C115.824915,10.4298494 115.947393,11.1923747 115.947393,12.0141637 C115.947393,12.4408618 115.927638,12.8240999 115.888129,13.163878 C115.84862,13.5036562 115.813062,13.7841707 115.781455,14.0054216 L108.574998,14.0054216 Z M110.471434,9.3354477 C109.965717,9.3354477 109.531117,9.49348404 109.167634,9.80955672 C108.80415,10.1256294 108.590801,10.6155421 108.527587,11.2792947 L112.320459,11.2792947 C112.288852,10.7261675 112.118963,10.2639112 111.810792,9.8925258 C111.502621,9.5211404 111.056168,9.3354477 110.471434,9.3354477 Z M117.645296,14.8588178 C117.645296,14.0844397 117.811234,13.4443925 118.14311,12.9386763 C118.474987,12.43296 118.901685,12.0299673 119.423205,11.7296983 C119.944725,11.4294292 120.521557,11.2200311 121.153703,11.1015038 C121.785848,10.9829765 122.40219,10.9237129 123.002728,10.9237129 L124.44876,10.9237129 C124.432957,10.6392475 124.353938,10.402193 124.211706,10.2125494 C124.069473,10.0229058 123.887731,9.87672216 123.66648,9.77399854 C123.445229,9.67127492 123.200273,9.60015857 122.931611,9.56064948 C122.66295,9.5211404 122.386386,9.50138585 122.101921,9.50138585 C121.722633,9.50138585 121.280132,9.54484585 120.774415,9.63176584 C120.268699,9.71868582 119.747179,9.85696762 119.209856,10.0466112 C119.067623,9.77794945 118.945145,9.53299312 118.842421,9.31174225 C118.739697,9.09049137 118.660679,8.86528958 118.605367,8.63613689 C118.550054,8.4069842 118.510545,8.16992969 118.486839,7.92497336 C118.463134,7.68001703 118.451281,7.39950253 118.451281,7.08342985 C119.209856,6.8305717 119.964479,6.64092809 120.715152,6.51449902 C121.465824,6.38806995 122.14143,6.32485541 122.741968,6.32485541 C123.563757,6.32485541 124.306528,6.42362813 124.97028,6.62117355 C125.634033,6.81871898 126.199013,7.12293893 126.66522,7.53383342 C127.131427,7.9447279 127.49096,8.47019873 127.743818,9.11024591 C127.996676,9.75029309 128.123105,10.5128184 128.123105,11.3978219 L128.123105,18.3435191 C127.522567,18.5173591 126.7956,18.691199 125.942204,18.865039 C125.088807,19.038879 124.188,19.125799 123.239782,19.125799 C122.417993,19.125799 121.66337,19.0507317 120.975912,18.9005972 C120.288454,18.7504627 119.699768,18.5094573 119.209856,18.1775809 C118.719943,17.8457046 118.336705,17.4071538 118.060141,16.8619284 C117.783578,16.316703 117.645296,15.6489995 117.645296,14.8588178 Z M123.239782,16.1863231 C123.382015,16.1863231 123.587462,16.1705194 123.856124,16.1389122 C124.124786,16.1073049 124.322331,16.0756976 124.44876,16.0440903 L124.44876,13.4364907 L123.09755,13.4364907 C122.544422,13.4364907 122.078215,13.555018 121.698928,13.7920725 C121.319641,14.029127 121.129997,14.3610033 121.129997,14.7877014 C121.129997,15.1037741 121.201113,15.3526814 121.343346,15.5344231 C121.485579,15.7161649 121.66337,15.8544467 121.876719,15.9492685 C122.090068,16.0440903 122.319221,16.1073049 122.564177,16.1389122 C122.809133,16.1705194 123.034335,16.1863231 123.239782,16.1863231 Z M131.029986,6.65673173 C131.772757,6.56190992 132.543184,6.48289175 133.341268,6.41967722 C134.139351,6.35646268 134.893975,6.32485541 135.605138,6.32485541 C137.517378,6.32485541 138.951558,6.68438809 139.907678,7.40345344 C140.863797,8.12251878 141.341857,9.13000045 141.341857,10.4258984 C141.341857,10.9158111 141.286545,11.3425092 141.175919,11.7059928 C141.065294,12.0694764 140.930963,12.3815982 140.772926,12.6423581 C140.61489,12.9031181 140.448952,13.1125162 140.275112,13.2705526 C140.101272,13.4285889 139.959039,13.555018 139.848414,13.6498398 L142.550835,18.8176281 C142.234763,18.8808427 141.883132,18.9282536 141.495943,18.9598608 C141.108754,18.9914681 140.733417,19.0072717 140.369934,19.0072717 C139.927432,19.0072717 139.500734,18.9914681 139.089839,18.9598608 C138.678945,18.9282536 138.339167,18.8808427 138.070505,18.8176281 L135.4392,13.2231417 L135.771076,13.0334981 C136.324203,12.7174254 136.703491,12.3815982 136.908938,12.0260164 C137.114385,11.6704346 137.217109,11.2871965 137.217109,10.876302 C137.217109,10.4654075 137.094631,10.1295803 136.849674,9.86882035 C136.604718,9.60806038 136.213578,9.4776804 135.676255,9.4776804 C135.375985,9.4776804 135.146833,9.49348404 134.988796,9.52509131 L134.988796,18.8413336 C134.577902,18.9203517 134.206517,18.9717136 133.87464,18.995419 C133.542764,19.0191245 133.250397,19.0309772 132.997539,19.0309772 C132.728877,19.0309772 132.43651,19.0191245 132.120437,18.995419 C131.804364,18.9717136 131.440881,18.9203517 131.029986,18.8413336 L131.029986,6.65673173 Z M143.347931,12.7490326 C143.347931,11.8008146 143.482262,10.9316147 143.750924,10.141433 C144.019586,9.35125133 144.414676,8.67564598 144.936196,8.11461697 C145.457716,7.55358796 146.097763,7.11503711 146.856338,6.79896443 C147.614912,6.48289175 148.484112,6.32485541 149.463937,6.32485541 C149.795814,6.32485541 150.111886,6.33275723 150.412156,6.34856086 C150.712425,6.3643645 151.008743,6.39597177 151.30111,6.44338267 C151.593477,6.49079357 151.893746,6.56190992 152.201917,6.65673173 C152.510088,6.75155353 152.853817,6.87008079 153.233104,7.01231349 C153.264711,7.54963705 153.217301,8.0830097 153.090871,8.61243144 C152.964442,9.14185318 152.766897,9.65942219 152.498235,10.1651385 C152.229573,10.0703167 151.988568,9.99524942 151.775219,9.9399367 C151.56187,9.88462398 151.360374,9.84116399 151.17073,9.80955672 C150.981086,9.77794945 150.795394,9.75819491 150.613652,9.75029309 C150.43191,9.74239127 150.238316,9.73844036 150.032868,9.73844036 C149.274294,9.73844036 148.646099,9.96364215 148.148285,10.4140457 C147.65047,10.8644493 147.401563,11.6427783 147.401563,12.7490326 C147.401563,13.3337671 147.47663,13.8197289 147.626765,14.2069179 C147.7769,14.5941069 147.974445,14.8983269 148.219401,15.1195778 C148.464358,15.3408286 148.748823,15.498865 149.072798,15.5936868 C149.396772,15.6885086 149.740501,15.7359195 150.103985,15.7359195 C150.56229,15.7359195 150.961332,15.6964104 151.30111,15.6173922 C151.640888,15.5383741 152.03993,15.411945 152.498235,15.238105 C152.766897,15.6648031 152.980246,16.1428631 153.138282,16.6722848 C153.296319,17.2017065 153.375337,17.8061955 153.375337,18.4857518 C152.64837,18.7702172 151.984617,18.951959 151.384079,19.0309772 C150.783541,19.1099953 150.183003,19.1495044 149.582465,19.1495044 C148.571032,19.1495044 147.678127,18.9993699 146.903749,18.6991009 C146.129371,18.3988318 145.477471,17.9681828 144.948049,17.4071538 C144.418627,16.8461248 144.019586,16.1744703 143.750924,15.3921904 C143.482262,14.6099106 143.347931,13.728858 143.347931,12.7490326 Z M162.99086,14.3372979 L159.482454,14.3372979 L159.482454,18.8413336 C159.071559,18.9045481 158.700174,18.951959 158.368298,18.9835663 C158.036421,19.0151735 157.736152,19.0309772 157.46749,19.0309772 C157.198829,19.0309772 156.89856,19.0151735 156.566683,18.9835663 C156.234807,18.951959 155.871323,18.9045481 155.476232,18.8413336 L155.476232,6.60932083 C155.823912,6.53030266 156.167641,6.47498994 156.50742,6.44338267 C156.847198,6.4117754 157.175123,6.39597177 157.491196,6.39597177 C157.791465,6.39597177 158.115439,6.4117754 158.463119,6.44338267 C158.810799,6.47498994 159.150577,6.53030266 159.482454,6.60932083 L159.482454,10.7814802 L162.99086,10.7814802 L162.99086,6.60932083 C163.33854,6.53030266 163.682269,6.47498994 164.022048,6.44338267 C164.361826,6.4117754 164.689751,6.39597177 165.005824,6.39597177 C165.306093,6.39597177 165.630067,6.4117754 165.977747,6.44338267 C166.325427,6.47498994 166.665205,6.53030266 166.997082,6.60932083 L166.997082,18.8413336 C166.586187,18.9045481 166.214802,18.951959 165.882926,18.9835663 C165.551049,19.0151735 165.25078,19.0309772 164.982118,19.0309772 C164.713457,19.0309772 164.413188,19.0151735 164.081311,18.9835663 C163.749435,18.951959 163.385951,18.9045481 162.99086,18.8413336 L162.99086,14.3372979 Z"/></svg>