<svg xmlns="http://www.w3.org/2000/svg" width="29" height="28" viewBox="0 0 29 28"><path fill="#F5C065" d="M4.19890443,27.8271484 L24.9872005,27.8271484 C25.7634483,27.8271484 26.4308321,27.6528264 26.9893519,27.3041822 C27.5478717,26.955538 27.9785946,26.4848684 28.2815206,25.8921733 C28.5844466,25.2994783 28.7359096,24.634564 28.7359096,23.8974307 C28.7359096,23.568709 28.690944,23.2350068 28.6010129,22.8963239 C28.5110817,22.557641 28.3809182,22.2239387 28.2105223,21.8952171 L17.8021747,2.79947827 C17.44245,2.15199625 16.9738614,1.66140411 16.3964087,1.32770184 C15.8189561,0.993999572 15.2178373,0.827148438 14.5930525,0.827148438 C13.9588012,0.827148438 13.3529492,0.993999572 12.7754965,1.32770184 C12.1980438,1.66140411 11.7341884,2.15199625 11.3839303,2.79947827 L0.975582576,21.8952171 C0.6253244,22.5327378 0.450195312,23.2001424 0.450195312,23.8974307 C0.450195312,24.634564 0.601658307,25.2994783 0.904584297,25.8921733 C1.20751029,26.4848684 1.63823318,26.955538 2.19675297,27.3041822 C2.75527277,27.6528264 3.42265659,27.8271484 4.19890443,27.8271484 Z M14.4714034,18.8271484 C13.3327302,18.8271484 12.7495073,18.331626 12.7217348,17.3405813 L12.4509527,8.49282008 C12.4370665,8.01520814 12.6141163,7.61819321 12.9821021,7.3017753 C13.350088,6.98535739 13.8326355,6.82714844 14.4297446,6.82714844 C15.0268538,6.82714844 15.5128728,6.98834247 15.8878018,7.31073053 C16.2627308,7.63311859 16.4501953,8.03311859 16.4501953,8.51073053 L16.1585839,17.3405813 C16.1308114,18.331626 15.5684179,18.8271484 14.4714034,18.8271484 Z M14.3084913,24.5271484 C13.7996721,24.5271484 13.3627514,24.350958 12.9977289,23.998577 C12.6327065,23.6461961 12.4501953,23.2057199 12.4501953,22.6771484 C12.4501953,22.160323 12.6327065,21.7227834 12.9977289,21.3645294 C13.3627514,21.0062754 13.7996721,20.8271484 14.3084913,20.8271484 C14.8062491,20.8271484 15.2376393,21.0033389 15.6026617,21.3557199 C15.9676841,21.7081008 16.1501953,22.148577 16.1501953,22.6771484 C16.1501953,23.2174659 15.9649188,23.6608786 15.5943657,24.0073865 C15.2238127,24.3538945 14.7951878,24.5271484 14.3084913,24.5271484 Z"/></svg>