<svg xmlns="http://www.w3.org/2000/svg" width="232" height="56" viewBox="0 0 232 56"><g fill="none" fill-rule="evenodd"><rect width="232" height="56" fill="#3B4961" rx="12"/><polygon fill="#FFF" points="210 22 216 35 204 35" opacity=".401" transform="rotate(90 210 28.5)"/><g fill="#FFF" fill-rule="nonzero" transform="translate(50.298 19.116)"><path d="M0 15.884 2.508 15.884 2.508 9.394 4.708 9.394C7.634 9.394 9.306 7.568 9.306 4.752 9.306 2.068 7.986.176 4.972.176L0 .176 0 15.884ZM2.508 2.068 4.114 2.068C6.116 2.068 6.798 3.102 6.798 4.796 6.798 6.798 5.632 7.502 4.29 7.502L2.508 7.502 2.508 2.068ZM10.846 15.884 13.222 15.884 13.222 8.8C13.222 6.6 14.52 6.116 15.598 6.116 16.016 6.116 16.412 6.182 16.588 6.248L16.588 3.828C16.456 3.762 16.258 3.74 16.016 3.74 14.674 3.74 13.794 4.576 13.266 5.896L13.222 5.896 13.222 4.048 10.846 4.048 10.846 15.884ZM19.69 9.966C19.69 7.348 20.02 5.5 21.714 5.5 23.452 5.5 23.76 7.348 23.76 9.966 23.76 12.98 23.452 14.432 21.714 14.432 20.02 14.432 19.69 12.98 19.69 9.966ZM21.714 16.192C24.992 16.192 26.136 13.662 26.136 9.966 26.136 6.27 25.146 3.74 21.714 3.74 18.282 3.74 17.314 6.27 17.314 9.966 17.314 13.662 18.458 16.192 21.714 16.192ZM28.072 0 28.072 2.376 30.448 2.376 30.448 0 28.072 0ZM28.072 4.048 28.072 16.434C28.072 17.688 27.742 18.04 26.84 18.04L26.29 18.04 26.29 19.866C26.642 19.91 26.994 19.932 27.324 19.932 29.414 19.932 30.448 19.118 30.448 16.654L30.448 4.048 28.072 4.048ZM34.892 8.646 34.892 8.404C34.892 6.864 35.376 5.368 36.872 5.368 38.214 5.368 38.698 6.512 38.698 8.008L38.698 8.646 34.892 8.646ZM41.074 10.274 41.074 9.02C41.074 5.742 40.194 3.74 36.894 3.74 33.198 3.74 32.516 7.04 32.516 10.142 32.516 15.62 34.914 16.192 36.85 16.192 39.424 16.192 41.008 14.586 41.008 11.924L38.764 11.924C38.764 12.65 38.566 14.564 36.872 14.564 35.09 14.564 34.892 12.54 34.892 10.956L34.892 10.274 41.074 10.274ZM48.774 11.572C48.774 13.354 48.29 14.454 46.97 14.432 45.276 14.432 44.946 12.584 44.946 9.966 44.946 7.348 45.276 5.5 46.97 5.5 48.378 5.434 48.664 6.886 48.664 7.986L51.04 7.986C51.04 6.534 50.49 3.674 46.97 3.74 43.538 3.74 42.57 6.27 42.57 9.966 42.57 13.662 43.538 16.192 46.97 16.192 49.918 16.192 50.842 14.41 51.018 11.572L48.774 11.572ZM51.744 5.808 53.372 5.808 53.372 13.156C53.372 15.554 54.186 16.016 55.77 16.016 56.54 16.016 57.178 15.95 57.684 15.818L57.684 14.058C57.464 14.102 57.178 14.124 56.826 14.124 56.012 14.124 55.748 13.816 55.748 12.87L55.748 5.808 57.684 5.808 57.684 4.048 55.748 4.048 55.748.682 53.372.682 53.372 4.048 51.744 4.048 51.744 5.808Z"/><polygon points="66.22 15.884 69.124 15.884 71.126 4.048 71.17 4.048 73.194 15.884 76.098 15.884 79.222 .176 76.736 .176 74.69 12.452 74.646 12.452 72.534 .176 69.894 .176 67.826 12.386 67.782 12.386 65.714 .176 63.184 .176"/><path d="M80.498 15.884 82.874 15.884 82.874 8.8C82.874 6.6 84.172 6.116 85.25 6.116 85.668 6.116 86.064 6.182 86.24 6.248L86.24 3.828C86.108 3.762 85.91 3.74 85.668 3.74 84.326 3.74 83.446 4.576 82.918 5.896L82.874 5.896 82.874 4.048 80.498 4.048 80.498 15.884ZM87.538 2.376 89.914 2.376 89.914 0 87.538 0 87.538 2.376ZM87.538 15.884 89.914 15.884 89.914 4.048 87.538 4.048 87.538 15.884ZM91.256 5.808 92.884 5.808 92.884 13.156C92.884 15.554 93.698 16.016 95.282 16.016 96.052 16.016 96.69 15.95 97.196 15.818L97.196 14.058C96.976 14.102 96.69 14.124 96.338 14.124 95.524 14.124 95.26 13.816 95.26 12.87L95.26 5.808 97.196 5.808 97.196 4.048 95.26 4.048 95.26.682 92.884.682 92.884 4.048 91.256 4.048 91.256 5.808ZM100.474 8.646 100.474 8.404C100.474 6.864 100.958 5.368 102.454 5.368 103.796 5.368 104.28 6.512 104.28 8.008L104.28 8.646 100.474 8.646ZM106.656 10.274 106.656 9.02C106.656 5.742 105.776 3.74 102.476 3.74 98.78 3.74 98.098 7.04 98.098 10.142 98.098 15.62 100.496 16.192 102.432 16.192 105.006 16.192 106.59 14.586 106.59 11.924L104.346 11.924C104.346 12.65 104.148 14.564 102.454 14.564 100.672 14.564 100.474 12.54 100.474 10.956L100.474 10.274 106.656 10.274Z"/><polygon points="108.46 10.648 114.224 10.648 114.224 8.404 108.46 8.404"/><path d="M122.408 15.884 124.652 15.884 124.652 4.048 122.276 4.048 122.276 12.32C122.276 13.64 121.374 14.3 120.34 14.3 119.306 14.3 118.734 13.86 118.734 12.54L118.734 4.048 116.358 4.048 116.358 12.32C116.358 15.378 117.546 16.192 119.306 16.192 120.626 16.192 121.748 15.554 122.342 14.498L122.408 14.498 122.408 15.884ZM133.188 10.01C133.188 13.288 132.55 14.3 131.208 14.3 129.536 14.3 129.184 12.672 129.184 9.834 129.184 7.282 129.558 5.632 131.186 5.632 132.858 5.632 133.188 7.326 133.188 10.01ZM135.696 10.12C135.696 6.05 134.596 3.74 131.89 3.74 130.57 3.74 129.734 4.444 129.228 5.5L129.184 5.5 129.184 4.048 126.94 4.048 126.94 19.756 129.316 19.756 129.316 14.498 129.36 14.498C129.8 15.554 130.724 16.192 132.044 16.192 133.694 16.192 135.696 15.092 135.696 10.12Z"/></g><path fill="#FFF" fill-rule="nonzero" d="M23.1954201,39.9264522 L35.4719656,39.9264522 C36.6891079,39.9264522 37.6042512,39.6161959 38.2173957,38.9956833 C38.8305401,38.3751707 39.1371123,37.4522781 39.1371123,36.2270055 L39.1371123,25.82991 L30.6482408,25.82991 C29.2053537,25.82991 28.4839101,25.10853 28.4839101,23.6657699 L28.4839101,15.0667572 L23.1954201,15.0667572 C21.9856461,15.0667572 21.0723448,15.3788238 20.4555162,16.0029569 C19.8386877,16.6270901 19.5302734,17.551793 19.5302734,18.7770656 L19.5302734,36.2270055 C19.5302734,37.4522781 19.8386877,38.3751707 20.4555162,38.9956833 C21.0723448,39.6161959 21.9856461,39.9264522 23.1954201,39.9264522 Z M30.7644797,24.1989445 L39.0077251,24.1989445 C38.9774903,23.9448704 38.8759876,23.6924159 38.7032172,23.4415812 C38.5304468,23.1907465 38.2995569,22.9208245 38.0105476,22.6318151 L31.6762883,16.1973237 C31.3984583,15.9122525 31.1325061,15.681839 30.878432,15.5060832 C30.6243578,15.3303274 30.3698391,15.2233304 30.1148756,15.1850922 L30.1148756,23.5506743 C30.1148756,23.9828544 30.3314103,24.1989445 30.7644797,24.1989445 Z"/></g></svg>