<svg xmlns="http://www.w3.org/2000/svg" width="232" height="56" viewBox="0 0 232 56"><g fill="none" fill-rule="evenodd"><rect width="232" height="56" fill="#3B4961" rx="12"/><polygon fill="#FFF" points="210 22 216 35 204 35" opacity=".401" transform="rotate(90 210 28.5)"/><g fill="#FFF" fill-rule="nonzero" opacity=".904" transform="translate(19 16)"><polygon points="15.548 7.123 17.589 9.321 9.573 16.765 7.532 14.566"/><polygon points="23.486 6.97 32.459 14.746 30.494 17.013 21.521 9.237"/><polygon points="30.316 7.141 32.28 9.409 23.596 16.935 21.631 14.668"/><path d="M19.5 0C22.5375661 0 25 2.46243388 25 5.5 25 8.53756613 22.5375661 11 19.5 11 16.4624339 11 14 8.53756613 14 5.5 14 2.46243388 16.4624339 0 19.5 0ZM19.5 3C18.1192881 3 17 4.11928813 17 5.5 17 6.88071187 18.1192881 8 19.5 8 20.8807119 8 22 6.88071187 22 5.5 22 4.11928813 20.8807119 3 19.5 3ZM34.5 0C37.5375661 0 40 2.46243388 40 5.5 40 8.53756613 37.5375661 11 34.5 11 31.4624339 11 29 8.53756613 29 5.5 29 2.46243388 31.4624339 0 34.5 0ZM34.5 3C33.1192881 3 32 4.11928813 32 5.5 32 6.88071187 33.1192881 8 34.5 8 35.8807119 8 37 6.88071187 37 5.5 37 4.11928813 35.8807119 3 34.5 3ZM34.5 13C37.5375661 13 40 15.4624338 40 18.5 40 21.5375661 37.5375661 24 34.5 24 31.4624339 24 29 21.5375661 29 18.5 29 15.4624338 31.4624339 13 34.5 13ZM34.5 16C33.1192881 16 32 17.1192882 32 18.5 32 19.8807119 33.1192881 21 34.5 21 35.8807119 21 37 19.8807119 37 18.5 37 17.1192882 35.8807119 16 34.5 16ZM19.5 13C22.5375661 13 25 15.4624338 25 18.5 25 21.5375661 22.5375661 24 19.5 24 16.4624339 24 14 21.5375661 14 18.5 14 15.4624338 16.4624339 13 19.5 13ZM19.5 16C18.1192881 16 17 17.1192882 17 18.5 17 19.8807119 18.1192881 21 19.5 21 20.8807119 21 22 19.8807119 22 18.5 22 17.1192882 20.8807119 16 19.5 16ZM5.5 13C8.53756613 13 11 15.4624338 11 18.5 11 21.5375661 8.53756613 24 5.5 24 2.46243388 24 0 21.5375661 0 18.5 0 15.4624338 2.46243388 13 5.5 13ZM5.5 16C4.11928813 16 3 17.1192882 3 18.5 3 19.8807119 4.11928813 21 5.5 21 6.88071187 21 8 19.8807119 8 18.5 8 17.1192882 6.88071187 16 5.5 16Z"/><path d="M3.84597238 8.51120514 3.84597238 11.9930618C3.52737112 12.0689192 3.20118411 12.1182266 2.86741136 12.1409838 2.53363861 12.163741 2.22262309 12.1751197 1.9343648 12.1751197 1.63093504 12.1751197 1.31612664 12.163741.98993964 12.1409838.66375263 12.1182266.333772751 12.0689192 0 11.9930618L0 .273086796 8.69326302.273086796C8.76912045.57651657 8.8184278.85718911 8.84118503 1.11510442 8.86394226 1.37301973 8.87532088 1.62334929 8.87532088 1.86609311 8.87532088 2.10883693 8.86394226 2.36295936 8.84118503 2.62846041 8.8184278 2.89396146 8.76912045 3.17842687 8.69326302 3.48185665L3.84597238 3.48185665 3.84597238 5.30243529 7.76021646 5.30243529C7.8360739 5.60586507 7.88538124 5.88653761 7.90813847 6.14445292 7.9308957 6.40236822 7.94227433 6.65269779 7.94227433 6.89544161 7.94227433 7.13818542 7.9308957 7.39230786 7.90813847 7.65780891 7.88538124 7.92330996 7.8360739 8.20777538 7.76021646 8.51120514L3.84597238 8.51120514ZM10.2549781 8.19260389C10.2549781 7.44920094 10.4142787 6.83475565 10.73288 6.34926801 11.0514813 5.86378038 11.4611115 5.47690741 11.9617706 5.18864912 12.4624297 4.90039085 13.0161891 4.69936862 13.6230486 4.58558245 14.2299081 4.47179629 14.8215962 4.41490321 15.3981128 4.41490321L16.786304 4.41490321C16.7711325 4.14181641 16.6952751 3.91424408 16.5587317 3.73218621 16.4221883 3.55012835 16.2477162 3.40979208 16.0353153 3.3111774 15.8229145 3.21256273 15.5877564 3.14429103 15.329841 3.1063623 15.0719258 3.06843358 14.8064248 3.04946922 14.5333379 3.04946922 14.1692222 3.04946922 13.7444205 3.09119082 13.2589329 3.17463401 12.7734452 3.2580772 12.2727861 3.39082772 11.7569555 3.57288558 11.6204121 3.31497028 11.5028331 3.0798122 11.4042184 2.86741136 11.3056038 2.65501051 11.2297463 2.43881681 11.176646 2.21883022 11.1235458 1.99884364 11.0856172 1.7712713 11.0628599 1.53611322 11.0401026 1.30095515 11.0287241 1.03166123 11.0287241.728231456 11.7569555.485487638 12.4813941.303429774 13.2020398.182057864 13.9226855.0606859547 14.5712667 0 15.1477832 0 15.9367006 0 16.6497606.094821804 17.2869631.284465413 17.9241656.474109021 18.4665463.766160178 18.9141053 1.16061888 19.3616642 1.55507759 19.7068156 2.05952958 19.9495594 2.67397488 20.1923032 3.28842017 20.3136751 4.0204445 20.3136751 4.87004787L20.3136751 11.5379171C19.7371586 11.7048035 19.0392701 11.8716899 18.2200097 12.0385763 17.4007493 12.2054626 16.5359744 12.2889058 15.6256851 12.2889058 14.8367677 12.2889058 14.1123292 12.2168413 13.4523693 12.0727122 12.7924096 11.928583 12.2272717 11.6972178 11.7569555 11.3786165 11.2866393 11.0600153 10.9187308 10.6390064 10.6532297 10.1155901 10.3877286 9.59217369 10.2549781 8.95117832 10.2549781 8.19260389ZM15.6256851 9.46700889C15.7622286 9.46700889 15.9594579 9.45183748 16.2173731 9.42149446 16.4752885 9.39115145 16.6649321 9.36080852 16.786304 9.33046551L16.786304 6.8271699 15.4891417 6.8271699C14.9581397 6.8271699 14.5105807 6.94095607 14.146465 7.1685284 13.7823492 7.39610073 13.6002914 7.71470199 13.6002914 8.12433219 13.6002914 8.42776196 13.6685631 8.6667129 13.8051065 8.84118503 13.9416498 9.01565715 14.1123292 9.14840767 14.3171442 9.23943665 14.5219593 9.33046551 14.7419459 9.39115145 14.977104 9.42149446 15.2122621 9.45183748 15.4284558 9.46700889 15.6256851 9.46700889ZM28.7708319 4.66523277C29.2259765 4.78660468 29.6393995 4.93452669 30.011101 5.10899881 30.3828025 5.28347094 30.7014038 5.50725039 30.9669048 5.78033718 31.2324059 6.05342398 31.4410138 6.38719674 31.5927287 6.78165544 31.7444436 7.17611415 31.820301 7.65401604 31.820301 8.21536111 31.820301 8.79187769 31.702722 9.33046551 31.4675639 9.83112471 31.2324059 10.3317838 30.8834616 10.7641712 30.4207313 11.128287 29.9580008 11.4924027 29.38907 11.780661 28.7139388 11.9930618 28.0388075 12.2054626 27.2612687 12.3116631 26.3813224 12.3116631 25.6530909 12.3116631 24.9779597 12.2585629 24.3559287 12.1523624 23.7338976 12.046162 23.0739378 11.8641042 22.3760493 11.6061888 22.4519068 10.5745276 22.7325794 9.52769492 23.218067 8.46569069 23.7035546 8.69326302 24.2117994 8.86394226 24.7428016 8.97772842 25.2738037 9.09151459 25.8048058 9.14840767 26.3358079 9.14840767 26.5178658 9.14840767 26.7075094 9.14082193 26.9047387 9.12565044 27.1019681 9.11047895 27.2764402 9.0763431 27.4281551 9.02324289 27.57987 8.97014268 27.7050348 8.89807811 27.8036494 8.80704918 27.9022641 8.71602025 27.9515715 8.59464834 27.9515715 8.44293345 27.9515715 8.24570409 27.8529568 8.09778208 27.6557274 7.99916741 27.458498 7.90055273 27.2309257 7.81331667 26.9730104 7.73745922L25.4255186 7.3050718C24.6214297 7.07749947 23.9538842 6.69062651 23.4228821 6.14445292 22.8918799 5.59827932 22.6263789 4.85487638 22.6263789 3.91424408 22.6263789 3.32255602 22.7477508 2.78396817 22.9904946 2.29848054 23.2332385 1.8129929 23.574597 1.39956983 24.0145701 1.05821133 24.4545433.71685284 24.9741668.45514466 25.5734406.273086796 26.1727144.0910289321 26.836467 0 27.5646985 0 28.141215 0 28.7708319.0606859547 29.4535488.182057864 30.1362658.303429774 30.8113971.477901893 31.4789426.705474223 31.4485996 1.19096186 31.349985 1.71058535 31.1830986 2.26434469 31.0162122 2.81810402 30.8265686 3.30738453 30.6141678 3.73218621 30.2045375 3.56529984 29.7114642 3.41358495 29.1349476 3.27704155 28.558431 3.14049816 28.0274289 3.07222646 27.5419412 3.07222646 26.8288813 3.07222646 26.4723513 3.26945581 26.4723513 3.66391452 26.4723513 3.83080089 26.5557945 3.95975854 26.7226808 4.05078748 26.8895672 4.14181641 27.0792109 4.21767385 27.2916117 4.27835981L28.7708319 4.66523277ZM36.5452716 3.48185665 33.177201 3.48185665C33.1013436 3.17842687 33.0520363 2.89396146 33.0292791 2.62846041 33.0065218 2.36295936 32.9951432 2.10883693 32.9951432 1.86609311 32.9951432 1.62334929 33.0065218 1.37301973 33.0292791 1.11510442 33.0520363.85718911 33.1013436.57651657 33.177201.273086796L43.7593145.273086796C43.8351719.57651657 43.8844792.85718911 43.9072364 1.11510442 43.9299937 1.37301973 43.9413723 1.62334929 43.9413723 1.86609311 43.9413723 2.10883693 43.9299937 2.36295936 43.9072364 2.62846041 43.8844792 2.89396146 43.8351719 3.17842687 43.7593145 3.48185665L40.3912439 3.48185665 40.3912439 12.015819C39.9967853 12.076505 39.6402553 12.1220194 39.321654 12.1523624 39.0030527 12.1827054 38.7147944 12.1978769 38.4568792 12.1978769 38.1989638 12.1978769 37.9107055 12.1827054 37.5921042 12.1523624 37.273503 12.1220194 36.9245588 12.076505 36.5452716 12.015819L36.5452716 3.48185665ZM51.5792686 4.66523277C52.0344133 4.78660468 52.4478364 4.93452669 52.8195378 5.10899881 53.1912393 5.28347094 53.5098405 5.50725039 53.7753416 5.78033718 54.0408426 6.05342398 54.2494506 6.38719674 54.4011655 6.78165544 54.5528804 7.17611415 54.6287379 7.65401604 54.6287379 8.21536111 54.6287379 8.79187769 54.5111588 9.33046551 54.2760007 9.83112471 54.0408426 10.3317838 53.6918984 10.7641712 53.229168 11.128287 52.7664377 11.4924027 52.1975068 11.780661 51.5223755 11.9930618 50.8472443 12.2054626 50.0697055 12.3116631 49.1897592 12.3116631 48.4615277 12.3116631 47.7863965 12.2585629 47.1643654 12.1523624 46.5423344 12.046162 45.8823746 11.8641042 45.1844862 11.6061888 45.2603436 10.5745276 45.5410161 9.52769492 46.0265038 8.46569069 46.5119914 8.69326302 47.0202363 8.86394226 47.5512384 8.97772842 48.0822405 9.09151459 48.6132426 9.14840767 49.1442447 9.14840767 49.3263026 9.14840767 49.5159462 9.14082193 49.7131755 9.12565044 49.9104049 9.11047895 50.084877 9.0763431 50.2365918 9.02324289 50.3883067 8.97014268 50.5134715 8.89807811 50.6120862 8.80704918 50.7107009 8.71602025 50.7600082 8.59464834 50.7600082 8.44293345 50.7600082 8.24570409 50.6613936 8.09778208 50.4641642 7.99916741 50.2669349 7.90055273 50.0393625 7.81331667 49.7814473 7.73745922L48.2339554 7.3050718C47.4298664 7.07749947 46.762321 6.69062651 46.2313189 6.14445292 45.7003168 5.59827932 45.4348158 4.85487638 45.4348158 3.91424408 45.4348158 3.32255602 45.5561876 2.78396817 45.7989315 2.29848054 46.0416752 1.8129929 46.3830338 1.39956983 46.823007 1.05821133 47.2629801.71685284 47.7826036.45514466 48.3818774.273086796 48.9811512.0910289321 49.6449038 0 50.3731353 0 50.9496519 0 51.5792686.0606859547 52.2619856.182057864 52.9447026.303429774 53.6198338.477901893 54.2873793.705474223 54.2570364 1.19096186 54.1584217 1.71058535 53.9915353 2.26434469 53.824649 2.81810402 53.6350053 3.30738453 53.4226045 3.73218621 53.0129743 3.56529984 52.5199009 3.41358495 51.9433843 3.27704155 51.3668678 3.14049816 50.8358657 3.07222646 50.3503781 3.07222646 49.6373181 3.07222646 49.2807881 3.26945581 49.2807881 3.66391452 49.2807881 3.83080089 49.3642313 3.95975854 49.5311177 4.05078748 49.6980041 4.14181641 49.8876476 4.21767385 50.1000485 4.27835981L51.5792686 4.66523277ZM60.2639977 7.3733435C60.4308841 7.99537453 60.7229352 8.43534771 61.1401511 8.69326302 61.5573671 8.95117832 62.1073336 9.08013597 62.7900506 9.08013597 63.2300238 9.08013597 63.7230971 9.02703576 64.2692706 8.92083534 64.8154443 8.81463492 65.3540322 8.65533429 65.8850343 8.44293345 66.0974351 8.83739215 66.2832858 9.30770834 66.4425864 9.85388188 66.601887 10.4000555 66.6891232 10.9689863 66.7042946 11.5606744 65.3540322 12.0613335 63.9734266 12.3116631 62.5624782 12.3116631 61.470131 12.3116631 60.5332916 12.1599482 59.7519599 11.8565184 58.9706283 11.5530886 58.3334258 11.1320798 57.8403523 10.593492 57.347279 10.0549041 56.9831633 9.41390871 56.7480052 8.67050578 56.5128471 7.92710284 56.395268 7.11542819 56.395268 6.23548184 56.395268 5.37070699 56.51664 4.55903235 56.7593838 3.80045791 57.0021276 3.04188348 57.3662433 2.38192373 57.851731 1.82057864 58.3372186 1.25923356 58.9440782.815467517 59.6723096.48928051 60.4005411.163093504 61.2501444 0 62.2211197 0 63.0252086 0 63.7420614.136543398 64.3716783.409630194 65.001295.68271699 65.53609 1.05821133 65.9760631 1.53611322 66.4160363 2.01401513 66.7536019 2.59053169 66.98876 3.26566294 67.2239181 3.94079418 67.3414972 4.67281852 67.3414972 5.46173592 67.3414972 5.87136612 67.3225327 6.23927472 67.2846041 6.56546173 67.2466754 6.89164873 67.2125394 7.16094266 67.1821965 7.3733435L60.2639977 7.3733435ZM62.0845763 2.8901686C61.5990887 2.8901686 61.1818727 3.04188348 60.8329285 3.34531326 60.4839843 3.64874303 60.2791692 4.11905918 60.2184832 4.7562617L63.8596405 4.7562617C63.8292975 4.22525959 63.666204 3.78149356 63.37036 3.42496357 63.0745159 3.06843358 62.6459214 2.8901686 62.0845763 2.8901686ZM68.9714839 8.19260389C68.9714839 7.44920094 69.1307846 6.83475565 69.4493859 6.34926801 69.7679871 5.86378038 70.1776173 5.47690741 70.6782764 5.18864912 71.1789355 4.90039085 71.7326949 4.69936862 72.3395545 4.58558245 72.946414 4.47179629 73.538102 4.41490321 74.1146186 4.41490321L75.5028099 4.41490321C75.4876384 4.14181641 75.4117809 3.91424408 75.2752375 3.73218621 75.1386941 3.55012835 74.964222 3.40979208 74.7518212 3.3111774 74.5394203 3.21256273 74.3042622 3.14429103 74.0463469 3.1063623 73.7884316 3.06843358 73.5229305 3.04946922 73.2498438 3.04946922 72.885728 3.04946922 72.4609264 3.09119082 71.9754387 3.17463401 71.4899511 3.2580772 70.989292 3.39082772 70.4734614 3.57288558 70.336918 3.31497028 70.2193389 3.0798122 70.1207242 2.86741136 70.0221095 2.65501051 69.9462521 2.43881681 69.8931519 2.21883022 69.8400517 1.99884364 69.8021229 1.7712713 69.7793658 1.53611322 69.7566085 1.30095515 69.7452299 1.03166123 69.7452299.728231456 70.4734614.485487638 71.1979.303429774 71.9185457.182057864 72.6391914.0606859547 73.2877725 0 73.8642891 0 74.6532065 0 75.3662664.094821804 76.003469.284465413 76.6406715.474109021 77.1830522.766160178 77.6306111 1.16061888 78.07817 1.55507759 78.4233214 2.05952958 78.6660653 2.67397488 78.908809 3.28842017 79.030181 4.0204445 79.030181 4.87004787L79.030181 11.5379171C78.4536643 11.7048035 77.7557759 11.8716899 76.9365155 12.0385763 76.1172551 12.2054626 75.2524803 12.2889058 74.3421909 12.2889058 73.5532735 12.2889058 72.8288349 12.2168413 72.1688752 12.0727122 71.5089154 11.928583 70.9437774 11.6972178 70.4734614 11.3786165 70.0031452 11.0600153 69.6352366 10.6390064 69.3697355 10.1155901 69.1042345 9.59217369 68.9714839 8.95117832 68.9714839 8.19260389ZM74.3421909 9.46700889C74.4787343 9.46700889 74.6759637 9.45183748 74.933879 9.42149446 75.1917943 9.39115145 75.3814379 9.36080852 75.5028099 9.33046551L75.5028099 6.8271699 74.2056475 6.8271699C73.6746454 6.8271699 73.2270865 6.94095607 72.8629708 7.1685284 72.498855 7.39610073 72.3167972 7.71470199 72.3167972 8.12433219 72.3167972 8.42776196 72.3850689 8.6667129 72.5216123 8.84118503 72.6581557 9.01565715 72.8288349 9.14840767 73.0336501 9.23943665 73.2384652 9.33046551 73.4584518 9.39115145 73.6936098 9.42149446 73.9287678 9.45183748 74.1449616 9.46700889 74.3421909 9.46700889ZM81.8207866.318601262C82.5338466.22757233 83.2734567.151714887 84.0396169.0910289321 84.805777.0303429774 85.5302156 0 86.2129326 0 88.0486828 0 89.4254954.345151367 90.3433704 1.0354541 91.2612455 1.72575684 91.720183 2.69293924 91.720183 3.93700131 91.720183 4.40731746 91.6670828 4.81694766 91.5608824 5.1658919 91.454682 5.51483613 91.3257243 5.81447303 91.1740094 6.0648026 91.0222945 6.31513217 90.8629939 6.51615438 90.6961075 6.66786928 90.5292211 6.81958416 90.3926778 6.94095607 90.2864773 7.031985L92.8808022 11.9930618C92.577372 12.0537477 92.2398065 12.0992622 91.868105 12.1296052 91.4964036 12.1599482 91.1360807 12.1751197 90.7871365 12.1751197 90.3623347 12.1751197 89.9527046 12.1599482 89.5582458 12.1296052 89.1637872 12.0992622 88.8376002 12.0537477 88.5796849 11.9930618L86.053632 6.62235481 86.3722333 6.44029695C86.9032353 6.13686717 87.267351 5.81447303 87.4645805 5.47311454 87.6618098 5.13175604 87.7604245 4.76384744 87.7604245 4.36938874 87.7604245 3.97493003 87.6428454 3.6525359 87.4076874 3.40220634 87.1725293 3.15187677 86.797035 3.02671199 86.2812043 3.02671199 85.9929461 3.02671199 85.7729595 3.04188348 85.6212446 3.07222646L85.6212446 12.015819C85.2267858 12.0916765 84.8702559 12.1409838 84.5516546 12.163741 84.2330534 12.1864983 83.9523808 12.1978769 83.709637 12.1978769 83.4517217 12.1978769 83.1710491 12.1864983 82.8676194 12.163741 82.5641896 12.1409838 82.2152454 12.0916765 81.8207866 12.015819L81.8207866.318601262ZM93.6460135 6.16721015C93.6460135 5.25692082 93.7749711 4.42248895 94.0328871 3.66391452 94.2908022 2.90534009 94.6700889 2.25675894 95.1707483 1.7181711 95.6714077 1.17958325 96.2858529.758574434 97.014084.45514466 97.742316.151714887 98.576748 0 99.51738 0 99.8359809 0 100.139411.00758574434 100.42767.022757233 100.715928.0379287217 101.000393.068271699 101.281065.113786165 101.561738.159300631 101.849996.22757233 102.145841.318601262 102.441684.409630194 102.771665.523416359 103.13578.659959758 103.166123 1.17579037 103.120609 1.68782812 102.999236 2.19607299 102.877865 2.70431786 102.688221 3.20118411 102.430306 3.68667174 102.17239 3.59564282 101.941026 3.52357825 101.73621 3.47047804 101.531395 3.41737782 101.337959 3.37565623 101.155901 3.34531326 100.973843 3.31497028 100.795578 3.29600591 100.621106 3.28842017 100.446633 3.28083443 100.260783 3.27704155 100.063554 3.27704155 99.3353225 3.27704155 98.7322551 3.49323527 98.2543532 3.9256227 97.7764514 4.35801012 97.5375009 5.10520594 97.5375009 6.16721015 97.5375009 6.72855522 97.6095655 7.1950785 97.7536948 7.56677998 97.897824 7.93848145 98.0874674 8.2305326 98.3226249 8.44293345 98.5577834 8.65533429 98.8308702 8.80704918 99.1418852 8.89807811 99.4529012 8.98910704 99.7828809 9.0346215 100.131825 9.0346215 100.571799 9.0346215 100.954878 8.99669278 101.281065 8.92083534 101.607253 8.8449779 101.990333 8.72360598 102.430306 8.55671961 102.688221 8.96634981 102.893036 9.42528738 103.044751 9.93353225 103.196466 10.4417771 103.272323 11.0220865 103.272323 11.6744605 102.574435 11.9475474 101.937233 12.1220194 101.360716 12.1978769 100.7842 12.2737343 100.207683 12.3116631 99.6311658 12.3116631 98.6601905 12.3116631 97.8030018 12.1675339 97.0595991 11.8792757 96.3161963 11.5910174 95.6903723 11.1775943 95.1821271 10.6390064 94.6738818 10.1004186 94.2908022 9.45563031 94.0328871 8.70464163 93.7749711 7.95365294 93.6460135 7.10784245 93.6460135 6.16721015ZM112.503226 7.69194476 109.135156 7.69194476 109.135156 12.015819C108.740697 12.076505 108.384167 12.1220194 108.065565 12.1523624 107.746964 12.1827054 107.458706 12.1978769 107.200791 12.1978769 106.942876 12.1978769 106.654617 12.1827054 106.336016 12.1523624 106.017414 12.1220194 105.66847 12.076505 105.289183 12.015819L105.289183.273086796C105.622956.197229353 105.952936.144129142 106.279122.113786165 106.60531.0834431877 106.920118.068271699 107.223548.068271699 107.511806.068271699 107.822822.0834431877 108.156594.113786165 108.490367.144129142 108.816555.197229353 109.135156.273086796L109.135156 4.27835981 112.503226 4.27835981 112.503226.273086796C112.836999.197229353 113.166978.144129142 113.493166.113786165 113.819353.0834431877 114.134161.068271699 114.437591.068271699 114.72585.068271699 115.036865.0834431877 115.370637.113786165 115.70441.144129142 116.030598.197229353 116.349198.273086796L116.349198 12.015819C115.95474 12.076505 115.59821 12.1220194 115.279609 12.1523624 114.961007 12.1827054 114.672749 12.1978769 114.414834 12.1978769 114.156918 12.1978769 113.86866 12.1827054 113.550059 12.1523624 113.231457 12.1220194 112.882513 12.076505 112.503226 12.015819L112.503226 7.69194476Z" transform="translate(45.65 6.072)"/></g></g></svg>