<?xml version="1.0" encoding="UTF-8"?>
<svg width="191px" height="28px" viewBox="0 0 191 28" version="1.1" xmlns="http://www.w3.org/2000/svg" xmlns:xlink="http://www.w3.org/1999/xlink">
    <title>btns-github</title>
    <g id="buttonz-2" stroke="none" stroke-width="1" fill="none" fill-rule="evenodd">
        <g id="GitHub" transform="translate(-24.000000, -13.906977)">
            <g id="btns-github" transform="translate(24.000000, 13.906977)">
                <g id="GitHub-logotype" transform="translate(34.000000, 5.000000)" fill="#FFFFFE">
                    <path d="M7.87235651,8.13204525 C7.71513484,8.13204525 7.58770678,8.2557132 7.58770678,8.40805495 L7.58770678,11.2945506 C7.58770678,11.4468924 7.71513484,11.5709505 7.87235651,11.5709505 L10.2492018,11.5709505 L10.2492018,15.1571258 C10.2492018,15.1571258 9.71553393,15.33346 8.23994519,15.33346 C6.49923362,15.33346 4.06743117,14.7170708 4.06743117,9.53569595 C4.06743117,4.35295567 6.59968638,3.67122149 8.97693432,3.67122149 C11.0349075,3.67122149 11.9212673,4.02213416 12.4855341,4.19144611 C12.6628865,4.24411227 12.8267514,4.07304478 12.8267514,3.92050798 L13.5063677,1.13173726 C13.5063677,1.0601503 13.4814055,0.974519023 13.3976613,0.916196128 C13.1685726,0.757807527 11.7708901,0 8.23994519,0 C4.17251402,0 0,1.67673449 0,9.73777796 C0,17.7988214 4.77704239,19 8.80260147,19 C12.1356605,19 14.1575996,17.6199515 14.1575996,17.6199515 C14.2409411,17.5752828 14.25,17.4623432 14.25,17.4108474 L14.25,8.40805495 C14.25,8.2557132 14.1225719,8.13204525 13.9653503,8.13204525 L7.87235651,8.13204525 Z" id="Fill-3"></path>
                    <path d="M47.1833333,1.07322251 C47.1833333,0.917308243 47.056617,0.791666667 46.8978154,0.791666667 L43.4370779,0.791666667 C43.2790886,0.791666667 43.1505446,0.917308243 43.1505446,1.07322251 C43.1505446,1.0738161 43.1515599,7.58956844 43.1515599,7.58956844 L37.7569765,7.58956844 L37.7569765,1.07322251 C37.7569765,0.917308243 37.629854,0.791666667 37.4714585,0.791666667 L34.0109241,0.791666667 C33.853544,0.791666667 33.725,0.917308243 33.725,1.07322251 L33.725,18.7178506 C33.725,18.873567 33.853544,19 34.0109241,19 L37.4714585,19 C37.629854,19 37.7569765,18.873567 37.7569765,18.7178506 L37.7569765,11.1704523 L43.1515599,11.1704523 C43.1515599,11.1704523 43.1420156,18.717257 43.1420156,18.7178506 C43.1420156,18.873567 43.2703565,19 43.428752,19 L46.8976123,19 C47.0562108,19 47.1829272,18.873567 47.1833333,18.7178506 L47.1833333,1.07322251" id="Fill-4"></path>
                    <path d="M20.7416667,3.16570379 C20.7416667,1.85276176 19.6784984,0.791666667 18.3665586,0.791666667 C17.0559157,0.791666667 15.9916667,1.85276176 15.9916667,3.16570379 C15.9916667,4.47757594 17.0559157,5.54166667 18.3665586,5.54166667 C19.6784984,5.54166667 20.7416667,4.47757594 20.7416667,3.16570379" id="Fill-5"></path>
                    <path d="M20.7416667,14.9211603 C20.7416667,14.4603599 20.7416667,6.61989673 20.7416667,6.61989673 C20.7416667,6.46219611 20.6159958,6.33333333 20.4608491,6.33333333 L17.0772956,6.33333333 C16.9221488,6.33333333 16.7833333,6.49547054 16.7833333,6.65296949 C16.7833333,6.65296949 16.7833333,16.642154 16.7833333,18.5464595 C16.7833333,18.8959418 16.9984277,19 17.2766562,19 C17.2766562,19 18.7209748,19 20.325021,19 C20.6596122,19 20.7416667,18.8336279 20.7416667,18.5408129 C20.7416667,17.9033556 20.7416667,15.4059586 20.7416667,14.9211603" id="Fill-6"></path>
                    <path d="M57.0361435,6.33333333 C56.8769888,6.33333333 56.7472006,6.45897913 56.7472006,6.61348419 L56.7472006,15.1976441 C56.7472006,15.1976441 55.8647644,15.8148791 54.612473,15.8148791 C53.3603869,15.8148791 53.0281128,15.2716574 53.0281128,14.0996177 C53.0281128,12.9258111 53.0281128,6.61348419 53.0281128,6.61348419 C53.0281128,6.45897913 52.8987354,6.33333333 52.7391699,6.33333333 L49.2143537,6.33333333 C49.0554042,6.33333333 48.925,6.45897913 48.925,6.61348419 C48.925,6.61348419 48.925,11.1848316 48.925,14.6662017 C48.925,18.1481608 50.9547882,19 53.7470817,19 C56.0380891,19 57.8851059,17.7898739 57.8851059,17.7898739 C57.8851059,17.7898739 57.9730004,18.4277227 58.0128405,18.5031101 C58.0524751,18.5784976 58.1561824,18.6548667 58.2683096,18.6548667 L60.5106463,18.645247 C60.6695958,18.645247 60.8,18.5196012 60.8,18.3656851 L60.7987678,6.61348419 C60.7987678,6.45897913 60.669185,6.33333333 60.5090035,6.33333333 L57.0361435,6.33333333 Z" id="Fill-7"></path>
                    <path d="M69.1582924,15.8544124 C67.9950061,15.8198519 67.2059307,15.3028035 67.2059307,15.3028035 L67.2059307,9.81972258 C67.2059307,9.81972258 67.9842973,9.3525734 68.9393582,9.26908456 C70.147066,9.16307315 71.310749,9.52032772 71.310749,12.3410855 C71.310749,15.315424 70.7856241,15.9023699 69.1582924,15.8544124 Z M70.48102,6.09883859 C68.5762526,6.09883859 67.2806935,6.93081458 67.2806935,6.93081458 L67.2806935,1.06795648 C67.2806935,0.914958324 67.1557582,0.791666667 67.0018697,0.791666667 L63.6125538,0.791666667 C63.4584669,0.791666667 63.3333333,0.914958324 63.3333333,1.06795648 L63.3333333,18.3825709 C63.3333333,18.5353749 63.4584669,18.6594432 63.6129504,18.6594432 C63.613347,18.6594432 65.9637169,18.6594432 65.9645102,18.6594432 C66.0704077,18.6594432 66.1505249,18.6060492 66.2098196,18.5126582 C66.2683211,18.4194613 66.3526028,17.7140777 66.3526028,17.7140777 C66.3526028,17.7140777 67.738393,19 70.3618357,19 C73.4419863,19 75.2083333,17.4704068 75.2083333,12.1333342 C75.2083333,6.79626164 72.3871755,6.09883859 70.48102,6.09883859 L70.48102,6.09883859 Z" id="Fill-8"></path>
                    <path d="M30.8676804,6.59867089 L28.3559521,6.59867089 C28.3559521,6.59867089 28.3522191,3.35185298 28.3522191,3.35108377 C28.3522191,3.22801083 28.2873826,3.16666667 28.142188,3.16666667 L24.7196046,3.16666667 C24.5863949,3.16666667 24.5150748,3.2239725 24.5150748,3.34916076 L24.5150748,6.7052059 C24.5150748,6.7052059 22.7998535,7.11057739 22.6837372,7.14307634 C22.5684067,7.17595989 22.4833333,7.28018728 22.4833333,7.40460633 L22.4833333,9.51357648 C22.4833333,9.66530234 22.6071122,9.78760607 22.7601657,9.78760607 L24.5150748,9.78760607 C24.5150748,9.78760607 24.5150748,11.9933039 24.5150748,14.8612879 C24.5150748,18.6298197 27.2158114,19 29.0381111,19 C29.870966,19 30.867091,18.7380854 31.0315401,18.6788566 C31.1309561,18.6428962 31.1887196,18.5421302 31.1887196,18.4327107 L31.1916667,16.1127858 C31.1916667,15.9616369 31.0610112,15.8389485 30.9140484,15.8389485 C30.7674785,15.8389485 30.3931948,15.8974082 30.0077121,15.8974082 C28.7738531,15.8974082 28.3559521,15.3358879 28.3559521,14.6091807 C28.3559521,13.882858 28.3557557,9.78760607 28.3557557,9.78760607 L30.8676804,9.78760607 C31.020734,9.78760607 31.1447093,9.66530234 31.1447093,9.51357648 L31.1447093,6.87193127 C31.1447093,6.72059002 31.020734,6.59867089 30.8676804,6.59867089" id="Fill-9"></path>
                </g>
                <g id="github-mark-white" fill="#FFFFFF">
                    <path d="M14.0115843,0 C6.26354013,0 0,6.41663984 0,14.3548983 C0,20.7003718 4.01326604,26.0716826 9.5807298,27.972758 C10.2768062,28.1156741 10.5317761,27.6638843 10.5317761,27.2838442 C10.5317761,26.951054 10.5088316,25.8103504 10.5088316,24.6218137 C6.61114811,25.4775601 5.79948922,22.9106125 5.79948922,22.9106125 C5.17310653,21.2469528 4.24500469,20.8193713 4.24500469,20.8193713 C2.96929489,19.94 4.3379296,19.94 4.3379296,19.94 C5.75302677,20.0350829 6.49556559,21.4134938 6.49556559,21.4134938 C7.74804417,23.599818 9.76629281,22.9820706 10.5782385,22.6017388 C10.6941078,21.674826 11.0655206,21.033162 11.4598779,20.6767469 C8.35119564,20.3439566 5.08046843,19.1081701 5.08046843,13.5942348 C5.08046843,12.025658 5.63687064,10.7423301 6.51851001,9.74425092 C6.37940946,9.38783574 5.89212732,7.91405024 6.65789737,5.94151682 C6.65789737,5.94151682 7.84096908,5.56118508 10.5085448,7.41501066 C11.6506289,7.10078857 12.8284416,6.94094182 14.0115843,6.93959598 C15.194656,6.93959598 16.4006721,7.10613695 17.514337,7.41501066 C20.1821995,5.56118508 21.3652712,5.94151682 21.3652712,5.94151682 C22.1310413,7.91405024 21.6434724,9.38783574 21.5043718,9.74425092 C22.4092424,10.7423301 22.9427002,12.025658 22.9427002,13.5942348 C22.9427002,19.1081701 19.671973,20.32004 16.5400595,20.6767469 C17.0505729,21.128245 17.4911058,21.9836997 17.4911058,23.3384857 C17.4911058,25.2634777 17.4681613,26.8084296 17.4681613,27.2835526 C17.4681613,27.6638843 17.723418,28.1156741 18.4192076,27.9730497 C23.9866713,26.071391 28,20.7003718 28,14.3548983 C28.0228818,6.41663984 21.7363973,0 14.0115843,0 Z" id="Path"></path>
                </g>
                <polygon id="Triangle" fill="#FFFFFF" opacity="0.399762835" transform="translate(184.500000, 14.500000) rotate(90.000000) translate(-184.500000, -14.500000) " points="184.5 8 191 21 178 21"></polygon>
            </g>
        </g>
    </g>
</svg>