<svg xmlns="http://www.w3.org/2000/svg" width="182" height="27.79" viewBox="0 0 182 27.79"><g fill="#FFF" fill-rule="evenodd"><polygon points="175.5 9.093 182 22.093 169 22.093" opacity=".4" transform="rotate(90 175.5 15.593)"/><path fill-rule="nonzero" d="M105.550485,23.6784867 L101.432848,23.6784867 L101.432848,17.2300951 C101.432848,15.6924149 101.405397,13.7129465 99.2912477,13.7129465 C97.146645,13.7129465 96.8185207,15.3883102 96.8185207,17.1181468 L96.8185207,23.6780578 L92.7008834,23.6780578 L92.7008834,10.4175499 L96.6538153,10.4175499 L96.6538153,12.2297393 L96.709146,12.2297393 C97.5151712,10.8515974 99.0138757,10.0284884 100.609321,10.08771 C104.782718,10.08771 105.552201,12.8328016 105.552201,16.4039941 L105.550485,23.6784867 Z M88.054816,8.60493172 C86.7351226,8.60516854 85.6651076,7.53553766 85.6648707,6.21584422 C85.6646339,4.89615079 86.7342648,3.82613585 88.0539582,3.82589891 C89.3736516,3.82566206 90.4436666,4.89529292 90.4439035,6.21498636 C90.4440173,6.84872551 90.1923745,7.45655355 89.7443336,7.90475525 C89.2962928,8.35295694 88.6885552,8.60481793 88.054816,8.60493172 M90.1136347,23.6784867 L85.9917082,23.6784867 L85.9917082,10.4175499 L90.1136347,10.4175499 L90.1136347,23.6784867 Z M107.603299,0.0020721455 L83.9225954,0.0020721455 C82.8033964,-0.0105580148 81.8855854,0.885944246 81.8719262,2.00513113 L81.8719262,25.7840577 C81.8851178,26.9037838 82.8028549,27.8011737 83.9225954,27.7894245 L107.603299,27.7894245 C108.725255,27.8033322 109.646586,26.9059941 109.662118,25.7840577 L109.662118,2.00341545 C109.646119,0.882017608 108.724714,-0.0144334102 107.603299,0.000176059793 M70.6646611,13.6181551 C68.6058425,13.6181551 67.3705513,14.9928455 67.3705513,16.9959045 C67.3705513,18.9989634 68.6054135,20.3749406 70.6646611,20.3749406 C72.7239087,20.3749406 73.9617734,19.0023948 73.9617734,16.9959045 C73.9617734,14.9894141 72.7260533,13.6181551 70.6646611,13.6181551 M77.7525732,23.6707661 L73.9617734,23.6707661 L73.9617734,21.9121918 L73.9055848,21.9121918 C72.941581,23.2087914 71.4275498,23.9810362 69.811967,24.0001771 C65.8556039,24.0001771 63.2494826,21.144853 63.2494826,17.1069949 C63.2494826,13.3985478 65.5557884,9.99334751 69.3470172,9.99334751 C71.0511185,9.99334751 72.6428427,10.4595841 73.5766027,11.7519218 L73.6306467,11.7519218 L73.6306467,4.1081286 L77.7521443,4.1081286 L77.7525732,23.6707661 Z M57.9626079,15.5006874 C57.9785268,14.8256059 57.7172364,14.1734663 57.239587,13.696141 C56.7619375,13.2188157 56.1096206,12.9579681 55.4345501,12.9743454 C53.9376884,12.8812068 52.6426628,14.005573 52.5247531,15.5006874 L57.9626079,15.5006874 Z M61.4505898,21.376899 C60.0649688,23.0571745 57.9976001,24.0258205 55.8197208,24.0152759 C51.7020835,24.0152759 48.4054001,21.2666664 48.4054001,17.0104878 C48.4054001,12.7543091 51.7016545,10.007073 55.8197208,10.007073 C59.6684249,10.007073 62.0819608,12.7521645 62.0819608,17.0104878 L62.0819608,18.3015386 L52.5247531,18.3015386 C52.7707843,19.8154635 54.0945741,20.9167615 55.6279933,20.8832114 C56.8187961,20.8758323 57.9248451,20.2658991 58.566528,19.2627496 L61.4505898,21.376899 Z M20.5169857,10.4141186 L24.4712043,10.4141186 L24.4712043,12.2263079 L24.5273929,12.2263079 C25.3321686,10.847527 26.8309501,10.024104 28.4262807,10.0842787 C32.6018223,10.0842787 33.3704479,12.8315148 33.3704479,16.4005627 L33.3704479,23.6724818 L29.2528106,23.6724818 L29.2528106,17.225377 C29.2528106,15.68641 29.2245019,13.7082284 27.1082079,13.7082284 C24.9678943,13.7082284 24.6376255,15.384021 24.6376255,17.1134287 L24.6376255,23.6707661 L20.5199882,23.6707661 L20.5169857,10.4141186 Z M35.4584332,4.10941536 L39.5760705,4.10941536 L39.5760705,15.8039342 L44.2427261,10.4068269 L49.291121,10.4068269 L43.8867221,16.5459668 L49.1774571,23.6789156 L44.0021017,23.6789156 L39.6309723,17.1241517 L39.5769283,17.1241517 L39.5769283,23.6780578 L35.459291,23.6780578 L35.4584332,4.10941536 Z M14.1162043,10.4128318 L18.2338416,10.4128318 L18.2338416,23.6733396 L14.1162043,23.6733396 L14.1162043,10.4128318 Z M16.175023,3.82032287 C17.4941868,3.82055978 18.5634105,4.89010352 18.5632526,6.20926736 C18.5630947,7.52843121 17.493615,8.59771893 16.1744511,8.59763999 C14.8552873,8.59756104 13.7859355,7.52814532 13.7859355,6.20898147 C13.7859355,5.57539551 14.0376559,4.96776585 14.485709,4.51979314 C14.9337622,4.07182043 15.541437,3.82020914 16.175023,3.82032287 M0,4.11241781 L4.28620309,4.11241781 L4.28620309,19.7251259 L12.2212333,19.7251259 L12.2212333,23.6806313 L0,23.6806313 L0,4.11241781 Z"/></g></svg>