<?xml version="1.0" encoding="UTF-8"?>
<svg width="190px" height="23.600003px" viewBox="0 0 190 23.600003" version="1.1" xmlns="http://www.w3.org/2000/svg" xmlns:xlink="http://www.w3.org/1999/xlink">
    <title>btns-fastsearch</title>
    <g id="buttonz-2" stroke="none" stroke-width="1" fill="none" fill-rule="evenodd">
        <g id="FastSearch" transform="translate(-24.000000, -15.906977)" fill="#FFFFFF">
            <g id="btns-fastsearch" transform="translate(24.000000, 15.906977)">
                <polygon id="Triangle" opacity="0.399762835" transform="translate(183.500000, 12.500000) rotate(90.000000) translate(-183.500000, -12.500000) " points="183.5 6 190 19 177 19"></polygon>
                <g id="fs-logo" fill-rule="nonzero">
                    <g id="logotype-copy" transform="translate(44.922505, 5.970664)">
                        <path d="M3.78187332,8.36935279 L3.78187332,11.7931789 C3.46858204,11.8677721 3.14783144,11.9162577 2.81962153,11.9386356 C2.49141162,11.9610135 2.18557965,11.9722025 1.90212563,11.9722025 C1.60375299,11.9722025 1.29419136,11.9610135 0.973440766,11.9386356 C0.652690169,11.9162577 0.328209913,11.8677721 0,11.7931789 L0,0.268535384 L8.54837638,0.268535384 C8.62296954,0.566908032 8.6714551,0.842902732 8.69383305,1.09651948 C8.716211,1.35013623 8.72739997,1.59629367 8.72739997,1.83499179 C8.72739997,2.07368991 8.716211,2.323577 8.69383305,2.58465307 C8.6714551,2.84572914 8.62296954,3.12545349 8.54837638,3.42382614 L3.78187332,3.42382614 L3.78187332,5.21406203 L7.63088049,5.21406203 C7.70547365,5.51243468 7.7539592,5.78842938 7.77633715,6.04204613 C7.7987151,6.29566288 7.80990408,6.54182032 7.80990408,6.78051844 C7.80990408,7.01921656 7.7987151,7.26910365 7.77633715,7.53017972 C7.7539592,7.79125579 7.70547365,8.07098014 7.63088049,8.36935279 L3.78187332,8.36935279 Z" id="Path"></path>
                        <path d="M10.0840631,8.05606151 C10.0840631,7.32504852 10.2407087,6.72084391 10.554,6.24344767 C10.8672913,5.76605143 11.2700944,5.38562631 11.7624093,5.10217229 C12.2547241,4.81871827 12.7992542,4.62104639 13.3959995,4.50915665 C13.9927448,4.39726691 14.5745715,4.34132204 15.1414795,4.34132204 L16.5065344,4.34132204 C16.4916157,4.07278665 16.4170226,3.84900717 16.2827549,3.66998358 C16.1484872,3.49095999 15.9769229,3.35296264 15.7680621,3.25599153 C15.5592012,3.15902042 15.3279624,3.09188657 15.0743457,3.05458999 C14.8207289,3.01729341 14.5596528,2.99864512 14.2911175,2.99864512 C13.9330703,2.99864512 13.5153486,3.03967136 13.0379523,3.12172384 C12.5605561,3.20377631 12.0682412,3.33431435 11.5610077,3.51333794 C11.42674,3.25972119 11.3111206,3.02848238 11.2141495,2.81962153 C11.1171784,2.61076067 11.0425852,2.39817016 10.99037,2.18184999 C10.9381548,1.96552982 10.9008582,1.74175034 10.8784803,1.51051153 C10.8561023,1.27927273 10.8449134,1.01446701 10.8449134,0.716094357 C11.5610077,0.477396238 12.2733724,0.298372649 12.9820075,0.179023589 C13.6906425,0.0596745297 14.328414,0 14.8953221,0 C15.671091,0 16.3722667,0.0932414527 16.9988492,0.279724358 C17.6254318,0.466207263 18.1587729,0.753390938 18.5988726,1.14127538 C19.0389722,1.52915982 19.3783711,2.02520435 19.6170692,2.62940897 C19.8557673,3.23361358 19.9751164,3.95343759 19.9751164,4.78888101 L19.9751164,11.34562 C19.4082084,11.5097249 18.7219513,11.6738299 17.9163451,11.8379348 C17.110739,12.0020398 16.2603769,12.0840923 15.365259,12.0840923 C14.5894901,12.0840923 13.8771254,12.0132288 13.2281649,11.8715018 C12.5792044,11.7297747 12.0234853,11.5022656 11.5610077,11.1889743 C11.0985301,10.875683 10.7367533,10.461691 10.4756772,9.94699817 C10.2146011,9.43230535 10.0840631,8.80199313 10.0840631,8.05606151 Z M15.365259,9.30922664 C15.4995267,9.30922664 15.6934689,9.294308 15.9470857,9.26447074 C16.2007024,9.23463347 16.3871853,9.20479621 16.5065344,9.17495894 L16.5065344,6.71338459 L15.2309913,6.71338459 C14.7088392,6.71338459 14.2687395,6.82527434 13.9106923,7.04905382 C13.5526451,7.27283331 13.3736216,7.58612459 13.3736216,7.98892767 C13.3736216,8.28730031 13.4407554,8.52226877 13.5750231,8.69383305 C13.7092908,8.86539732 13.8771254,8.99593535 14.0785269,9.08544715 C14.2799285,9.17495894 14.4962486,9.23463347 14.7274875,9.26447074 C14.9587263,9.294308 15.1713168,9.30922664 15.365259,9.30922664 Z" id="Shape"></path>
                        <path d="M28.2913216,4.58747947 C28.7388805,4.70682853 29.1454133,4.8522852 29.5109198,5.02384947 C29.8764263,5.19541374 30.1897175,5.41546357 30.4507936,5.68399896 C30.7118697,5.95253434 30.9170009,6.28074425 31.0661872,6.6686287 C31.2153735,7.05651314 31.2899667,7.52645006 31.2899667,8.07843946 C31.2899667,8.64534749 31.1743473,9.17495894 30.9431085,9.66727381 C30.7118697,10.1595887 30.3687411,10.5847697 29.9137228,10.9428169 C29.4587046,11.3008641 28.8992558,11.5843181 28.2353767,11.7931789 C27.5714976,12.0020398 26.8069176,12.1064702 25.941637,12.1064702 C25.2255426,12.1064702 24.5616635,12.054255 23.9499995,11.9498246 C23.3383356,11.8453941 22.6893751,11.6663706 22.003118,11.4127538 C22.0777112,10.3982868 22.3537059,9.36890117 22.8311021,8.3245969 C23.3084983,8.54837638 23.8082725,8.716211 24.3304247,8.82810074 C24.8525768,8.93999048 25.3747289,8.99593535 25.8968811,8.99593535 C26.0759047,8.99593535 26.2623876,8.98847604 26.4563298,8.97355741 C26.650272,8.95863877 26.8218363,8.92507185 26.9710226,8.87285664 C27.1202089,8.82064142 27.2432876,8.74977792 27.3402588,8.66026612 C27.4372299,8.57075433 27.4857154,8.45140527 27.4857154,8.30221895 C27.4857154,8.10827672 27.3887443,7.96282006 27.1948021,7.86584895 C27.0008599,7.76887784 26.7770804,7.6830957 26.5234636,7.60850254 L25.0017631,7.18332151 C24.2110756,6.95954203 23.5546558,6.5791169 23.0325036,6.04204613 C22.5103515,5.50497537 22.2492754,4.77396238 22.2492754,3.84900717 C22.2492754,3.2671805 22.3686245,2.73756905 22.6073226,2.26017281 C22.8460207,1.78277658 23.18169,1.37624384 23.6143303,1.04057461 C24.0469706,0.704905382 24.5579338,0.447558973 25.1472198,0.268535384 C25.7365058,0.0895117946 26.3891959,0 27.1052903,0 C27.6721983,0 28.2913216,0.0596745297 28.96266,0.179023589 C29.6339985,0.298372649 30.2978776,0.469936921 30.9542975,0.693716408 C30.9244602,1.17111265 30.8274891,1.68207581 30.6633841,2.22660589 C30.4992792,2.77113597 30.3127963,3.25226187 30.1039354,3.66998358 C29.7011323,3.50587862 29.2162768,3.3566923 28.6493687,3.2224246 C28.0824607,3.08815691 27.5603086,3.02102307 27.0829123,3.02102307 C26.3817366,3.02102307 26.0311488,3.21496529 26.0311488,3.60284973 C26.0311488,3.76695469 26.1132012,3.89376306 26.2773062,3.98327486 C26.4414112,4.07278665 26.6278941,4.14737982 26.8367549,4.20705434 L28.2913216,4.58747947 Z" id="Path"></path>
                        <path d="M35.9361883,3.42382614 L32.6242519,3.42382614 C32.5496587,3.12545349 32.5011732,2.84572914 32.4787952,2.58465307 C32.4564173,2.323577 32.4452283,2.07368991 32.4452283,1.83499179 C32.4452283,1.59629367 32.4564173,1.35013623 32.4787952,1.09651948 C32.5011732,0.842902732 32.5496587,0.566908032 32.6242519,0.268535384 L43.029998,0.268535384 C43.1045912,0.566908032 43.1530767,0.842902732 43.1754547,1.09651948 C43.1978326,1.35013623 43.2090216,1.59629367 43.2090216,1.83499179 C43.2090216,2.07368991 43.1978326,2.323577 43.1754547,2.58465307 C43.1530767,2.84572914 43.1045912,3.12545349 43.029998,3.42382614 L39.7180616,3.42382614 L39.7180616,11.8155569 C39.3301772,11.8752314 38.9795893,11.9199873 38.666298,11.9498246 C38.3530067,11.9796618 38.0695527,11.9945805 37.815936,11.9945805 C37.5623192,11.9945805 37.2788652,11.9796618 36.9655739,11.9498246 C36.6522826,11.9199873 36.3091541,11.8752314 35.9361883,11.8155569 L35.9361883,3.42382614 Z" id="Path"></path>
                        <path d="M50.7196206,4.58747947 C51.1671796,4.70682853 51.5737123,4.8522852 51.9392188,5.02384947 C52.3047253,5.19541374 52.6180166,5.41546357 52.8790926,5.68399896 C53.1401687,5.95253434 53.3452999,6.28074425 53.4944862,6.6686287 C53.6436726,7.05651314 53.7182657,7.52645006 53.7182657,8.07843946 C53.7182657,8.64534749 53.6026463,9.17495894 53.3714075,9.66727381 C53.1401687,10.1595887 52.7970402,10.5847697 52.3420219,10.9428169 C51.8870036,11.3008641 51.3275549,11.5843181 50.6636757,11.7931789 C49.9997966,12.0020398 49.2352167,12.1064702 48.369936,12.1064702 C47.6538416,12.1064702 46.9899625,12.054255 46.3782986,11.9498246 C45.7666346,11.8453941 45.1176741,11.6663706 44.431417,11.4127538 C44.5060102,10.3982868 44.7820049,9.36890117 45.2594011,8.3245969 C45.7367974,8.54837638 46.2365716,8.716211 46.7587237,8.82810074 C47.2808758,8.93999048 47.803028,8.99593535 48.3251801,8.99593535 C48.5042037,8.99593535 48.6906866,8.98847604 48.8846288,8.97355741 C49.078571,8.95863877 49.2501353,8.92507185 49.3993216,8.87285664 C49.548508,8.82064142 49.6715867,8.74977792 49.7685578,8.66026612 C49.8655289,8.57075433 49.9140144,8.45140527 49.9140144,8.30221895 C49.9140144,8.10827672 49.8170433,7.96282006 49.6231011,7.86584895 C49.4291589,7.76887784 49.2053794,7.6830957 48.9517627,7.60850254 L47.4300621,7.18332151 C46.6393746,6.95954203 45.9829548,6.5791169 45.4608027,6.04204613 C44.9386505,5.50497537 44.6775745,4.77396238 44.6775745,3.84900717 C44.6775745,3.2671805 44.7969235,2.73756905 45.0356216,2.26017281 C45.2743198,1.78277658 45.609989,1.37624384 46.0426293,1.04057461 C46.4752697,0.704905382 46.9862328,0.447558973 47.5755188,0.268535384 C48.1648048,0.0895117946 48.817495,0 49.5335893,0 C50.1004974,0 50.7196206,0.0596745297 51.3909591,0.179023589 C52.0622975,0.298372649 52.7261767,0.469936921 53.3825965,0.693716408 C53.3527592,1.17111265 53.2557881,1.68207581 53.0916832,2.22660589 C52.9275782,2.77113597 52.7410953,3.25226187 52.5322344,3.66998358 C52.1294314,3.50587862 51.6445758,3.3566923 51.0776678,3.2224246 C50.5107597,3.08815691 49.9886076,3.02102307 49.5112114,3.02102307 C48.8100356,3.02102307 48.4594478,3.21496529 48.4594478,3.60284973 C48.4594478,3.76695469 48.5415003,3.89376306 48.7056052,3.98327486 C48.8697102,4.07278665 49.0561931,4.14737982 49.2650539,4.20705434 L50.7196206,4.58747947 Z" id="Path"></path>
                        <path d="M59.2596052,7.25045536 C59.4237102,7.86211929 59.7108939,8.29475963 60.1211563,8.54837638 C60.5314187,8.80199313 61.0722191,8.92880151 61.7435575,8.92880151 C62.1761979,8.92880151 62.6610534,8.87658629 63.1981242,8.77215587 C63.735195,8.66772544 64.2648064,8.5110798 64.7869586,8.30221895 C64.9958194,8.69010339 65.1785727,9.15258099 65.3352183,9.68965176 C65.4918639,10.2267225 65.5776461,10.7861712 65.5925647,11.3679979 C64.2648064,11.8603128 62.9072109,12.1064702 61.5197781,12.1064702 C60.4456365,12.1064702 59.524411,11.9572839 58.7561014,11.6589112 C57.9877918,11.3605386 57.3612093,10.9465465 56.8763537,10.4169351 C56.3914982,9.88732364 56.033451,9.25701142 55.8022122,8.52599843 C55.5709734,7.79498544 55.455354,6.99683861 55.455354,6.13155793 C55.455354,5.28119588 55.574703,4.48304904 55.8134012,3.73711742 C56.0520993,2.9911858 56.4101465,2.34222529 56.8875427,1.79023589 C57.3649389,1.23824649 57.9616842,0.801876493 58.6777786,0.481125896 C59.3938729,0.160375299 60.2293164,0 61.1841088,0 C61.9747964,0 62.6797017,0.134267692 63.298825,0.402803076 C63.9179482,0.671338459 64.44383,1.04057461 64.8764704,1.51051153 C65.3091107,1.98044845 65.6410503,2.54735649 65.8722891,3.21123563 C66.1035279,3.87511477 66.2191473,4.59493879 66.2191473,5.37070767 C66.2191473,5.77351075 66.200499,6.13528759 66.1632024,6.45603818 C66.1259058,6.77678878 66.0923389,7.04159451 66.0625016,7.25045536 L59.2596052,7.25045536 Z M61.0498411,2.84199948 C60.5724449,2.84199948 60.1621825,2.9911858 59.819054,3.28955845 C59.4759254,3.5879311 59.2745239,4.0504087 59.2148494,4.67699127 L62.7953211,4.67699127 C62.7654839,4.15483913 62.6051086,3.71846913 62.3141952,3.36788127 C62.0232819,3.01729341 61.6018305,2.84199948 61.0498411,2.84199948 Z" id="Shape"></path>
                        <path d="M67.8219678,8.05606151 C67.8219678,7.32504852 67.9786135,6.72084391 68.2919048,6.24344767 C68.6051961,5.76605143 69.0079991,5.38562631 69.500314,5.10217229 C69.9926289,4.81871827 70.537159,4.62104639 71.1339042,4.50915665 C71.7306495,4.39726691 72.3124762,4.34132204 72.8793842,4.34132204 L74.2444391,4.34132204 C74.2295205,4.07278665 74.1549273,3.84900717 74.0206596,3.66998358 C73.8863919,3.49095999 73.7148277,3.35296264 73.5059668,3.25599153 C73.2971059,3.15902042 73.0658671,3.09188657 72.8122504,3.05458999 C72.5586336,3.01729341 72.2975576,2.99864512 72.0290222,2.99864512 C71.670975,2.99864512 71.2532533,3.03967136 70.7758571,3.12172384 C70.2984608,3.20377631 69.806146,3.33431435 69.2989125,3.51333794 C69.1646448,3.25972119 69.0490254,3.02848238 68.9520543,2.81962153 C68.8550831,2.61076067 68.78049,2.39817016 68.7282748,2.18184999 C68.6760596,1.96552982 68.638763,1.74175034 68.616385,1.51051153 C68.5940071,1.27927273 68.5828181,1.01446701 68.5828181,0.716094357 C69.2989125,0.477396238 70.0112772,0.298372649 70.7199122,0.179023589 C71.4285472,0.0596745297 72.0663188,0 72.6332268,0 C73.4089957,0 74.1101714,0.0932414527 74.736754,0.279724358 C75.3633365,0.466207263 75.8966777,0.753390938 76.3367773,1.14127538 C76.776877,1.52915982 77.1162759,2.02520435 77.354974,2.62940897 C77.5936721,3.23361358 77.7130211,3.95343759 77.7130211,4.78888101 L77.7130211,11.34562 C77.1461131,11.5097249 76.459856,11.6738299 75.6542499,11.8379348 C74.8486437,12.0020398 73.9982817,12.0840923 73.1031637,12.0840923 C72.3273948,12.0840923 71.6150301,12.0132288 70.9660696,11.8715018 C70.3171091,11.7297747 69.7613901,11.5022656 69.2989125,11.1889743 C68.8364349,10.875683 68.474658,10.461691 68.213582,9.94699817 C67.9525059,9.43230535 67.8219678,8.80199313 67.8219678,8.05606151 Z M73.1031637,9.30922664 C73.2374314,9.30922664 73.4313736,9.294308 73.6849904,9.26447074 C73.9386071,9.23463347 74.12509,9.20479621 74.2444391,9.17495894 L74.2444391,6.71338459 L72.968896,6.71338459 C72.4467439,6.71338459 72.0066442,6.82527434 71.6485971,7.04905382 C71.2905499,7.27283331 71.1115263,7.58612459 71.1115263,7.98892767 C71.1115263,8.28730031 71.1786601,8.52226877 71.3129278,8.69383305 C71.4471955,8.86539732 71.6150301,8.99593535 71.8164317,9.08544715 C72.0178332,9.17495894 72.2341534,9.23463347 72.4653922,9.26447074 C72.696631,9.294308 72.9092215,9.30922664 73.1031637,9.30922664 Z" id="Shape"></path>
                        <path d="M80.4571171,0.313291281 C81.1582928,0.223779486 81.8855762,0.149186324 82.6389671,0.0895117946 C83.392358,0.0298372649 84.1047227,0 84.7760612,0 C86.5812157,0 87.9350816,0.339398888 88.8376589,1.01819666 C89.7402361,1.69699444 90.1915248,2.64805726 90.1915248,3.87138512 C90.1915248,4.33386272 90.1393095,4.7366658 90.0348791,5.07979434 C89.9304487,5.42292289 89.8036403,5.71756588 89.654454,5.96372331 C89.5052677,6.20988075 89.348622,6.40755263 89.1845171,6.55673895 C89.0204121,6.70592528 88.8861444,6.82527434 88.781714,6.91478613 L91.3328001,11.7931789 C91.0344275,11.8528535 90.7024879,11.8976094 90.3369814,11.9274466 C89.9714749,11.9572839 89.6171574,11.9722025 89.2740289,11.9722025 C88.8563072,11.9722025 88.4535041,11.9572839 88.0656196,11.9274466 C87.6777352,11.8976094 87.3569846,11.8528535 87.1033678,11.7931789 L84.6194155,6.51198306 L84.9327068,6.33295947 C85.454859,6.03458682 85.8129061,5.71756588 86.0068484,5.38189665 C86.2007906,5.04622742 86.2977617,4.68445058 86.2977617,4.29656614 C86.2977617,3.9086817 86.1821423,3.59166076 85.9509035,3.34550332 C85.7196647,3.09934589 85.3504285,2.97626717 84.843195,2.97626717 C84.559741,2.97626717 84.3434208,2.9911858 84.1942345,3.02102307 L84.1942345,11.8155569 C83.8063501,11.89015 83.4557622,11.9386356 83.1424709,11.9610135 C82.8291797,11.9833915 82.553185,11.9945805 82.3144868,11.9945805 C82.0608701,11.9945805 81.7848754,11.9833915 81.4865027,11.9610135 C81.1881301,11.9386356 80.8450015,11.89015 80.4571171,11.8155569 L80.4571171,0.313291281 Z" id="Path"></path>
                        <path d="M92.0852587,6.06442408 C92.0852587,5.16930614 92.212067,4.34878135 92.4656838,3.60284973 C92.7193005,2.85691811 93.0922664,2.21914657 93.5845812,1.68953512 C94.0768961,1.15992367 94.6811007,0.745931621 95.3971951,0.447558973 C96.1132894,0.149186324 96.9338142,0 97.8587694,0 C98.1720607,0 98.4704333,0.00745931621 98.7538874,0.0223779486 C99.0373414,0.0372965811 99.3170657,0.0671338459 99.5930604,0.111889743 C99.8690551,0.15664564 100.152509,0.223779486 100.443422,0.313291281 C100.734336,0.402803076 101.058816,0.514692819 101.416863,0.648960511 C101.446701,1.15619401 101.401945,1.65969786 101.282596,2.15947204 C101.163246,2.65924623 100.976764,3.14783144 100.723147,3.62522768 C100.46953,3.53571589 100.242021,3.46485238 100.040619,3.41263717 C99.8392179,3.36042195 99.6490053,3.31939572 99.4699817,3.28955845 C99.2909581,3.25972119 99.1156642,3.2410729 98.9440999,3.23361358 C98.7725357,3.22615426 98.5897824,3.2224246 98.3958402,3.2224246 C97.6797458,3.2224246 97.0867302,3.43501512 96.6167933,3.86019614 C96.1468563,4.28537717 95.9118879,5.02011981 95.9118879,6.06442408 C95.9118879,6.61641348 95.9827514,7.07516143 96.1244784,7.44066792 C96.2662054,7.80617442 96.4526883,8.09335809 96.6839271,8.30221895 C96.9151659,8.5110798 97.1837013,8.66026612 97.4895333,8.74977792 C97.7953652,8.83928971 98.1198455,8.88404561 98.462974,8.88404561 C98.8956144,8.88404561 99.2723098,8.84674903 99.5930604,8.77215587 C99.913811,8.69756271 100.290507,8.57821365 100.723147,8.41410869 C100.976764,8.81691177 101.178165,9.2682004 101.327351,9.76797458 C101.476538,10.2677488 101.551131,10.8383865 101.551131,11.4798877 C100.864874,11.748423 100.238291,11.9199873 99.6713833,11.9945805 C99.1044752,12.0691736 98.5375672,12.1064702 97.9706592,12.1064702 C97.0158667,12.1064702 96.1729639,11.9647432 95.441951,11.6812892 C94.710938,11.3978352 94.0955444,10.9913024 93.5957702,10.461691 C93.095996,9.93207954 92.7193005,9.29803766 92.4656838,8.55956536 C92.212067,7.82109305 92.0852587,6.98937929 92.0852587,6.06442408 Z" id="Path"></path>
                        <path d="M110.628186,7.56374664 L107.31625,7.56374664 L107.31625,11.8155569 C106.928366,11.8752314 106.577778,11.9199873 106.264486,11.9498246 C105.951195,11.9796618 105.667741,11.9945805 105.414124,11.9945805 C105.160508,11.9945805 104.877054,11.9796618 104.563762,11.9498246 C104.250471,11.9199873 103.907342,11.8752314 103.534377,11.8155569 L103.534377,0.268535384 C103.862587,0.193942222 104.187067,0.141727008 104.507817,0.111889743 C104.828568,0.0820524784 105.13813,0.0671338459 105.436502,0.0671338459 C105.719956,0.0671338459 106.025788,0.0820524784 106.353998,0.111889743 C106.682208,0.141727008 107.002959,0.193942222 107.31625,0.268535384 L107.31625,4.20705434 L110.628186,4.20705434 L110.628186,0.268535384 C110.956396,0.193942222 111.280877,0.141727008 111.601627,0.111889743 C111.922378,0.0820524784 112.231939,0.0671338459 112.530312,0.0671338459 C112.813766,0.0671338459 113.119598,0.0820524784 113.447808,0.111889743 C113.776018,0.141727008 114.096768,0.193942222 114.41006,0.268535384 L114.41006,11.8155569 C114.022175,11.8752314 113.671587,11.9199873 113.358296,11.9498246 C113.045005,11.9796618 112.761551,11.9945805 112.507934,11.9945805 C112.254317,11.9945805 111.970863,11.9796618 111.657572,11.9498246 C111.344281,11.9199873 111.001152,11.8752314 110.628186,11.8155569 L110.628186,7.56374664 Z" id="Path"></path>
                    </g>
                    <g id="logo">
                        <polygon id="p1" points="15.288669 7.00422656 17.296 9.16596763 9.41357008 16.4853669 7.40623908 14.3236258"></polygon>
                        <polygon id="p2" points="23.0947347 6.85357415 31.9178758 14.5002964 29.9858305 16.7295795 21.1626894 9.08285723"></polygon>
                        <polygon id="p3" points="29.810433 7.02243465 31.7424783 9.25171773 23.202766 16.6528017 21.2707207 14.4235186"></polygon>
                        <path d="M19.1750024,0 C22.1619428,0 24.5833365,2.42139362 24.5833365,5.40833402 C24.5833365,8.39527442 22.1619428,10.816668 19.1750024,10.816668 C16.188062,10.816668 13.7666684,8.39527442 13.7666684,5.40833402 C13.7666684,2.42139362 16.188062,0 19.1750024,0 Z M19.1750024,2.95000038 C17.8173023,2.95000038 16.7166688,4.05063384 16.7166688,5.40833402 C16.7166688,6.7660342 17.8173023,7.86666767 19.1750024,7.86666767 C20.5327026,7.86666767 21.6333361,6.7660342 21.6333361,5.40833402 C21.6333361,4.05063384 20.5327026,2.95000038 19.1750024,2.95000038 Z" id="o2"></path>
                        <path d="M33.9250043,0 C36.9119447,0 39.3333383,2.42139362 39.3333383,5.40833402 C39.3333383,8.39527442 36.9119447,10.816668 33.9250043,10.816668 C30.9380639,10.816668 28.5166703,8.39527442 28.5166703,5.40833402 C28.5166703,2.42139362 30.9380639,0 33.9250043,0 Z M33.9250043,2.95000038 C32.5673041,2.95000038 31.4666707,4.05063384 31.4666707,5.40833402 C31.4666707,6.7660342 32.5673041,7.86666767 33.9250043,7.86666767 C35.2827045,7.86666767 36.383338,6.7660342 36.383338,5.40833402 C36.383338,4.05063384 35.2827045,2.95000038 33.9250043,2.95000038 Z" id="o3"></path>
                        <path d="M33.9250043,12.783335 C36.9119447,12.783335 39.3333383,15.2047286 39.3333383,18.191669 C39.3333383,21.1786094 36.9119447,23.600003 33.9250043,23.600003 C30.9380639,23.600003 28.5166703,21.1786094 28.5166703,18.191669 C28.5166703,15.2047286 30.9380639,12.783335 33.9250043,12.783335 Z M33.9250043,15.7333353 C32.5673041,15.7333353 31.4666707,16.8339688 31.4666707,18.191669 C31.4666707,19.5493692 32.5673041,20.6500026 33.9250043,20.6500026 C35.2827045,20.6500026 36.383338,19.5493692 36.383338,18.191669 C36.383338,16.8339688 35.2827045,15.7333353 33.9250043,15.7333353 Z" id="o3"></path>
                        <path d="M19.1750024,12.783335 C22.1619428,12.783335 24.5833365,15.2047286 24.5833365,18.191669 C24.5833365,21.1786094 22.1619428,23.600003 19.1750024,23.600003 C16.188062,23.600003 13.7666684,21.1786094 13.7666684,18.191669 C13.7666684,15.2047286 16.188062,12.783335 19.1750024,12.783335 Z M19.1750024,15.7333353 C17.8173023,15.7333353 16.7166688,16.8339688 16.7166688,18.191669 C16.7166688,19.5493692 17.8173023,20.6500026 19.1750024,20.6500026 C20.5327026,20.6500026 21.6333361,19.5493692 21.6333361,18.191669 C21.6333361,16.8339688 20.5327026,15.7333353 19.1750024,15.7333353 Z" id="o4"></path>
                        <path d="M5.40833402,12.783335 C8.39527442,12.783335 10.816668,15.2047286 10.816668,18.191669 C10.816668,21.1786094 8.39527442,23.600003 5.40833402,23.600003 C2.42139362,23.600003 0,21.1786094 0,18.191669 C0,15.2047286 2.42139362,12.783335 5.40833402,12.783335 Z M5.40833402,15.7333353 C4.05063384,15.7333353 2.95000038,16.8339688 2.95000038,18.191669 C2.95000038,19.5493692 4.05063384,20.6500026 5.40833402,20.6500026 C6.7660342,20.6500026 7.86666767,19.5493692 7.86666767,18.191669 C7.86666767,16.8339688 6.7660342,15.7333353 5.40833402,15.7333353 Z" id="o1"></path>
                    </g>
                </g>
            </g>
        </g>
    </g>
</svg>