<?xml version="1.0" encoding="UTF-8"?>
<svg width="175.499132px" height="26px" viewBox="0 0 175.499132 26" version="1.1" xmlns="http://www.w3.org/2000/svg" xmlns:xlink="http://www.w3.org/1999/xlink">
    <title>fs-logo</title>
    <g id="logo-3px-" stroke="none" stroke-width="1" fill="none" fill-rule="evenodd" opacity="0.903715588">
        <g id="fs-logo" fill="#3A4961" fill-rule="nonzero">
            <g id="logo">
                <polygon id="p1" points="16.8434468 7.7165198 19.0549128 10.0980986 10.370881 18.1618425 8.1594149 15.7802637"></polygon>
                <polygon id="p2" points="25.4433486 7.55054683 35.163757 15.9749008 33.0352327 18.4308903 23.3148243 10.0065364"></polygon>
                <polygon id="p3" points="32.8419983 7.73657957 34.9705225 10.1925691 25.5623661 18.3463046 23.4338419 15.8903151"></polygon>
                <path d="M21.125,0 C24.4156966,0 27.0833333,2.6676367 27.0833333,5.95833333 C27.0833333,9.24902997 24.4156966,11.9166667 21.125,11.9166667 C17.8343034,11.9166667 15.1666667,9.24902997 15.1666667,5.95833333 C15.1666667,2.6676367 17.8343034,0 21.125,0 Z M21.125,3.25 C19.6292288,3.25 18.4166667,4.46256214 18.4166667,5.95833333 C18.4166667,7.45410453 19.6292288,8.66666667 21.125,8.66666667 C22.6207712,8.66666667 23.8333333,7.45410453 23.8333333,5.95833333 C23.8333333,4.46256214 22.6207712,3.25 21.125,3.25 Z" id="o2"></path>
                <path d="M37.375,0 C40.6656966,0 43.3333333,2.6676367 43.3333333,5.95833333 C43.3333333,9.24902997 40.6656966,11.9166667 37.375,11.9166667 C34.0843034,11.9166667 31.4166667,9.24902997 31.4166667,5.95833333 C31.4166667,2.6676367 34.0843034,0 37.375,0 Z M37.375,3.25 C35.8792288,3.25 34.6666667,4.46256214 34.6666667,5.95833333 C34.6666667,7.45410453 35.8792288,8.66666667 37.375,8.66666667 C38.8707712,8.66666667 40.0833333,7.45410453 40.0833333,5.95833333 C40.0833333,4.46256214 38.8707712,3.25 37.375,3.25 Z" id="o3"></path>
                <path d="M37.375,14.0833333 C40.6656966,14.0833333 43.3333333,16.75097 43.3333333,20.0416667 C43.3333333,23.3323633 40.6656966,26 37.375,26 C34.0843034,26 31.4166667,23.3323633 31.4166667,20.0416667 C31.4166667,16.75097 34.0843034,14.0833333 37.375,14.0833333 Z M37.375,17.3333333 C35.8792288,17.3333333 34.6666667,18.5458955 34.6666667,20.0416667 C34.6666667,21.5374379 35.8792288,22.75 37.375,22.75 C38.8707712,22.75 40.0833333,21.5374379 40.0833333,20.0416667 C40.0833333,18.5458955 38.8707712,17.3333333 37.375,17.3333333 Z" id="o3"></path>
                <path d="M21.125,14.0833333 C24.4156966,14.0833333 27.0833333,16.75097 27.0833333,20.0416667 C27.0833333,23.3323633 24.4156966,26 21.125,26 C17.8343034,26 15.1666667,23.3323633 15.1666667,20.0416667 C15.1666667,16.75097 17.8343034,14.0833333 21.125,14.0833333 Z M21.125,17.3333333 C19.6292288,17.3333333 18.4166667,18.5458955 18.4166667,20.0416667 C18.4166667,21.5374379 19.6292288,22.75 21.125,22.75 C22.6207712,22.75 23.8333333,21.5374379 23.8333333,20.0416667 C23.8333333,18.5458955 22.6207712,17.3333333 21.125,17.3333333 Z" id="o4"></path>
                <path d="M5.95833333,14.0833333 C9.24902997,14.0833333 11.9166667,16.75097 11.9166667,20.0416667 C11.9166667,23.3323633 9.24902997,26 5.95833333,26 C2.6676367,26 0,23.3323633 0,20.0416667 C0,16.75097 2.6676367,14.0833333 5.95833333,14.0833333 Z M5.95833333,17.3333333 C4.46256214,17.3333333 3.25,18.5458955 3.25,20.0416667 C3.25,21.5374379 4.46256214,22.75 5.95833333,22.75 C7.45410453,22.75 8.66666667,21.5374379 8.66666667,20.0416667 C8.66666667,18.5458955 7.45410453,17.3333333 5.95833333,17.3333333 Z" id="o1"></path>
            </g>
            <g id="logotype" transform="translate(49.454167, 6.577850)">
                <path d="M4.16647008,9.22047224 L4.16647008,12.9924836 C3.82131871,13.0746625 3.46794945,13.1280788 3.10636231,13.1527325 C2.74477516,13.1773861 2.40784168,13.189713 2.09556187,13.189713 C1.76684629,13.189713 1.42580386,13.1773861 1.07243461,13.1527325 C0.719065349,13.1280788 0.361587147,13.0746625 0,12.9924836 L0,0.295844029 L9.4177016,0.295844029 C9.49988049,0.624559617 9.55329678,0.928621536 9.57795045,1.20802979 C9.60260411,1.48743804 9.61493095,1.7586284 9.61493095,2.02160087 C9.61493095,2.28457334 9.60260411,2.55987264 9.57795045,2.84749878 C9.55329678,3.13512492 9.49988049,3.44329578 9.4177016,3.77201137 L4.16647008,3.77201137 L4.16647008,5.7443049 L8.40690116,5.7443049 C8.48908006,6.07302049 8.54249634,6.37708241 8.56715001,6.65649066 C8.59180368,6.93589891 8.60413052,7.20708927 8.60413052,7.47006174 C8.60413052,7.73303421 8.59180368,8.00833351 8.56715001,8.29595965 C8.54249634,8.58358579 8.48908006,8.89175666 8.40690116,9.22047224 L4.16647008,9.22047224 Z" id="Path"></path>
                <path d="M11.1095596,8.87532088 C11.1095596,8.06996769 11.2821353,7.40431862 11.6272867,6.87837368 C11.9724381,6.35242874 12.4162041,5.93331636 12.9585848,5.62103655 C13.5009655,5.30875675 14.1008715,5.09098267 14.7583027,4.96771432 C15.4157338,4.84444598 16.0567292,4.78281181 16.6812889,4.78281181 L18.1851627,4.78281181 C18.1687269,4.48696778 18.086548,4.24043109 17.938626,4.04320173 C17.790704,3.84597238 17.6016925,3.69394142 17.3715916,3.58710885 C17.1414907,3.48027629 16.8867361,3.40631528 16.6073278,3.36522583 C16.3279196,3.32413638 16.0402935,3.30359166 15.7444494,3.30359166 C15.3499907,3.30359166 14.8897889,3.34879005 14.363844,3.43918684 C13.837899,3.52958363 13.2955183,3.6733967 12.7367018,3.87062605 C12.5887798,3.5912178 12.4614025,3.33646322 12.3545699,3.10636231 C12.2477374,2.87626139 12.1655585,2.64205154 12.1080332,2.40373274 C12.050508,2.16541394 12.0094186,1.91887724 11.9847649,1.66412266 C11.9601112,1.40936808 11.9477844,1.117633 11.9477844,0.788917411 C12.7367018,0.525944941 13.5215103,0.328715588 14.3022098,0.197229353 C15.0829093,0.0657431176 15.7855389,0 16.4100985,0 C17.264759,0 18.0372407,0.102723621 18.7275434,0.308170864 C19.4178461,0.513618106 20.0054252,0.83000686 20.4902807,1.25733712 C20.9751362,1.68466739 21.3490502,2.23115705 21.6120227,2.89680612 C21.8749951,3.56245518 22.0064814,4.35548154 22.0064814,5.27588519 L22.0064814,12.4994102 C21.3819218,12.6802038 20.6258759,12.8609974 19.7383438,13.041791 C18.8508117,13.2225845 17.9139723,13.3129813 16.9278255,13.3129813 C16.073165,13.3129813 15.2883566,13.2349114 14.5734001,13.0787715 C13.8584437,12.9226316 13.246211,12.6719859 12.7367018,12.3268345 C12.2271926,11.9816832 11.828625,11.5255903 11.5409988,10.9585559 C11.2533727,10.3915215 11.1095596,9.69710985 11.1095596,8.87532088 Z M16.9278255,10.2559263 C17.0757476,10.2559263 17.2894127,10.2394906 17.5688209,10.206619 C17.8482292,10.1737474 18.0536764,10.1408759 18.1851627,10.1080043 L18.1851627,7.39610073 L16.7799035,7.39610073 C16.2046513,7.39610073 15.7197958,7.51936908 15.3253371,7.76590577 C14.9308783,8.01244246 14.733649,8.35759382 14.733649,8.80135987 C14.733649,9.13007546 14.80761,9.38893898 14.955532,9.57795045 C15.103454,9.76696191 15.2883566,9.91077498 15.5102396,10.0093897 C15.7321226,10.1080043 15.9704414,10.1737474 16.225196,10.206619 C16.4799506,10.2394906 16.7141604,10.2559263 16.9278255,10.2559263 Z" id="Shape"></path>
                <path d="M31.1684012,5.05400217 C31.6614745,5.1854884 32.1093495,5.34573725 32.5120261,5.53474871 C32.9147027,5.72376018 33.2598541,5.96618792 33.5474802,6.26203195 C33.8351064,6.55787598 34.0610983,6.91946313 34.2254561,7.34679339 C34.3898139,7.77412366 34.4719928,8.29185071 34.4719928,8.89997454 C34.4719928,9.52453416 34.3446155,10.1080043 34.0898609,10.6503851 C33.8351064,11.1927658 33.4570834,11.6611855 32.9557922,12.0556442 C32.4545009,12.4501029 31.8381592,12.7623827 31.106767,12.9924836 C30.3753748,13.2225845 29.5330411,13.337635 28.5797659,13.337635 C27.7908485,13.337635 27.0594563,13.2801098 26.3855894,13.1650593 C25.7117224,13.0500088 24.996766,12.8527795 24.2407201,12.5733712 C24.322899,11.4557382 24.626961,10.3216695 25.1529059,9.17116491 C25.6788508,9.4177016 26.2294494,9.60260411 26.8047017,9.72587246 C27.379954,9.84914081 27.9552063,9.91077498 28.5304586,9.91077498 C28.7276879,9.91077498 28.9331352,9.90255709 29.1468003,9.88612131 C29.3604654,9.86968553 29.5494769,9.83270503 29.7138347,9.7751798 C29.8781925,9.71765457 30.0137877,9.63958462 30.1206202,9.54096994 C30.2274528,9.44235527 30.2808691,9.31086903 30.2808691,9.14651124 C30.2808691,8.9328461 30.1740365,8.77259725 29.9603714,8.66576469 C29.7467062,8.55893212 29.5001695,8.46442639 29.2207613,8.38224749 L27.5443118,7.91382778 C26.6732155,7.66729109 25.9500412,7.24817872 25.3747889,6.65649066 C24.7995366,6.0648026 24.5119105,5.25944941 24.5119105,4.24043109 C24.5119105,3.59943569 24.6433967,3.01596552 24.9063692,2.49002058 C25.1693417,1.96407564 25.5391467,1.51620065 26.0157843,1.14639561 C26.4924219,0.776590577 27.0553474,0.493073382 27.7045607,0.295844029 C28.3537739,0.0986146764 29.0728393,0 29.8617567,0 C30.4863163,0 31.1684012,0.0657431176 31.9080112,0.197229353 C32.6476213,0.328715588 33.3790135,0.517727051 34.1021878,0.764263742 C34.0693162,1.29020868 33.9624837,1.85313413 33.7816901,2.45304008 C33.6008965,3.05294602 33.3954493,3.58299991 33.1653484,4.04320173 C32.7215823,3.86240816 32.1874195,3.69805036 31.5628599,3.55012835 C30.9383002,3.40220634 30.363048,3.32824533 29.837103,3.32824533 C29.0646214,3.32824533 28.6783806,3.54191046 28.6783806,3.96924073 C28.6783806,4.1500343 28.7687774,4.28973842 28.9495709,4.3883531 C29.1303645,4.48696778 29.3358118,4.56914667 29.5659127,4.63488979 L31.1684012,5.05400217 Z" id="Path"></path>
                <path d="M39.5907109,3.77201137 L35.9419678,3.77201137 C35.8597889,3.44329578 35.8063727,3.13512492 35.781719,2.84749878 C35.7570653,2.55987264 35.7447385,2.28457334 35.7447385,2.02160087 C35.7447385,1.7586284 35.7570653,1.48743804 35.781719,1.20802979 C35.8063727,0.928621536 35.8597889,0.624559617 35.9419678,0.295844029 L47.405924,0.295844029 C47.4881029,0.624559617 47.5415191,0.928621536 47.5661728,1.20802979 C47.5908265,1.48743804 47.6031533,1.7586284 47.6031533,2.02160087 C47.6031533,2.28457334 47.5908265,2.55987264 47.5661728,2.84749878 C47.5415191,3.13512492 47.4881029,3.44329578 47.405924,3.77201137 L43.7571809,3.77201137 L43.7571809,13.0171373 C43.3298507,13.0828804 42.9436099,13.1321877 42.5984585,13.1650593 C42.2533071,13.1979309 41.9410273,13.2143666 41.6616191,13.2143666 C41.3822108,13.2143666 41.069931,13.1979309 40.7247796,13.1650593 C40.3796283,13.1321877 40.0016054,13.0828804 39.5907109,13.0171373 L39.5907109,3.77201137 Z" id="Path"></path>
                <path d="M55.877541,5.05400217 C56.3706144,5.1854884 56.8184894,5.34573725 57.221166,5.53474871 C57.6238426,5.72376018 57.9689939,5.96618792 58.2566201,6.26203195 C58.5442462,6.55787598 58.7702382,6.91946313 58.934596,7.34679339 C59.0989538,7.77412366 59.1811327,8.29185071 59.1811327,8.89997454 C59.1811327,9.52453416 59.0537554,10.1080043 58.7990008,10.6503851 C58.5442462,11.1927658 58.1662233,11.6611855 57.664932,12.0556442 C57.1636408,12.4501029 56.547299,12.7623827 55.8159068,12.9924836 C55.0845147,13.2225845 54.242181,13.337635 53.2889058,13.337635 C52.4999883,13.337635 51.7685962,13.2801098 51.0947292,13.1650593 C50.4208623,13.0500088 49.7059058,12.8527795 48.94986,12.5733712 C49.0320389,11.4557382 49.3361008,10.3216695 49.8620458,9.17116491 C50.3879907,9.4177016 50.9385893,9.60260411 51.5138416,9.72587246 C52.0890939,9.84914081 52.6643461,9.91077498 53.2395984,9.91077498 C53.4368278,9.91077498 53.642275,9.90255709 53.8559401,9.88612131 C54.0696053,9.86968553 54.2586167,9.83270503 54.4229745,9.7751798 C54.5873323,9.71765457 54.7229275,9.63958462 54.8297601,9.54096994 C54.9365926,9.44235527 54.9900089,9.31086903 54.9900089,9.14651124 C54.9900089,8.9328461 54.8831764,8.77259725 54.6695112,8.66576469 C54.4558461,8.55893212 54.2093094,8.46442639 53.9299012,8.38224749 L52.2534517,7.91382778 C51.3823553,7.66729109 50.6591811,7.24817872 50.0839288,6.65649066 C49.5086765,6.0648026 49.2210504,5.25944941 49.2210504,4.24043109 C49.2210504,3.59943569 49.3525366,3.01596552 49.6155091,2.49002058 C49.8784815,1.96407564 50.2482866,1.51620065 50.7249242,1.14639561 C51.2015618,0.776590577 51.7644872,0.493073382 52.4137005,0.295844029 C53.0629138,0.0986146764 53.7819791,0 54.5708966,0 C55.1954562,0 55.877541,0.0657431176 56.6171511,0.197229353 C57.3567612,0.328715588 58.0881533,0.517727051 58.8113276,0.764263742 C58.7784561,1.29020868 58.6716235,1.85313413 58.4908299,2.45304008 C58.3100364,3.05294602 58.1045891,3.58299991 57.8744882,4.04320173 C57.4307222,3.86240816 56.8965593,3.69805036 56.2719997,3.55012835 C55.6474401,3.40220634 55.0721878,3.32824533 54.5462429,3.32824533 C53.7737613,3.32824533 53.3875204,3.54191046 53.3875204,3.96924073 C53.3875204,4.1500343 53.4779172,4.28973842 53.6587108,4.3883531 C53.8395044,4.48696778 54.0449516,4.56914667 54.2750525,4.63488979 L55.877541,5.05400217 Z" id="Path"></path>
                <path d="M65.2859975,7.98778879 C65.4667911,8.66165574 65.7831798,9.13829335 66.2351637,9.4177016 C66.6871477,9.69710985 67.2829447,9.83681397 68.0225548,9.83681397 C68.4991924,9.83681397 69.0333552,9.77928874 69.6250432,9.66423829 C70.2167313,9.54918783 70.8002015,9.37661215 71.3754538,9.14651124 C71.6055547,9.5738415 71.806893,10.0833507 71.9794686,10.6750387 C72.1520443,11.2667268 72.2465501,11.8830685 72.2629858,12.5240639 C70.8002015,13.0664446 69.3045455,13.337635 67.7760181,13.337635 C66.5926419,13.337635 65.5777326,13.1732772 64.7312899,12.8445616 C63.8848473,12.515846 63.1945446,12.0597531 62.6603817,11.476283 C62.1262189,10.8928128 61.7317602,10.1984011 61.4770056,9.39304793 C61.222251,8.58769474 61.0948737,7.70838054 61.0948737,6.75510533 C61.0948737,5.81826591 61.22636,4.93895171 61.4893324,4.11716274 C61.7523049,3.29537377 62.1467636,2.58041737 62.6727086,1.97229353 C63.1986535,1.36416969 63.8560847,0.883423143 64.6450021,0.530053886 C65.4339195,0.176684629 66.3543231,0 67.406213,0 C68.2773093,0 69.0538999,0.147922015 69.7359848,0.443766044 C70.4180696,0.739610073 70.9974308,1.14639561 71.4740684,1.66412266 C71.950706,2.18184972 72.3164021,2.80640933 72.5711567,3.53780152 C72.8259113,4.2691937 72.9532886,5.06222006 72.9532886,5.91688058 C72.9532886,6.36064663 72.9327438,6.75921428 72.8916544,7.11258354 C72.850565,7.46595279 72.8135844,7.75768788 72.7807129,7.98778879 L65.2859975,7.98778879 Z M67.258291,3.13101598 C66.7323461,3.13101598 66.2803621,3.29537377 65.9023392,3.62408936 C65.5243163,3.95280495 65.3024333,4.46231411 65.2366901,5.15261684 L69.1812772,5.15261684 C69.1484056,4.57736456 68.971721,4.09661802 68.6512233,3.7103772 C68.3307256,3.32413638 67.8664148,3.13101598 67.258291,3.13101598 Z" id="Shape"></path>
                <path d="M74.7191076,8.87532088 C74.7191076,8.06996769 74.8916833,7.40431862 75.2368347,6.87837368 C75.581986,6.35242874 76.0257521,5.93331636 76.5681328,5.62103655 C77.1105135,5.30875675 77.7104195,5.09098267 78.3678507,4.96771432 C79.0252818,4.84444598 79.6662772,4.78281181 80.2908368,4.78281181 L81.7947107,4.78281181 C81.7782749,4.48696778 81.696096,4.24043109 81.548174,4.04320173 C81.4002519,3.84597238 81.2112405,3.69394142 80.9811396,3.58710885 C80.7510387,3.48027629 80.4962841,3.40631528 80.2168758,3.36522583 C79.9374676,3.32413638 79.6498414,3.30359166 79.3539974,3.30359166 C78.9595387,3.30359166 78.4993369,3.34879005 77.9733919,3.43918684 C77.447447,3.52958363 76.9050663,3.6733967 76.3462498,3.87062605 C76.1983278,3.5912178 76.0709505,3.33646322 75.9641179,3.10636231 C75.8572853,2.87626139 75.7751064,2.64205154 75.7175812,2.40373274 C75.660056,2.16541394 75.6189665,1.91887724 75.5943129,1.66412266 C75.5696592,1.40936808 75.5573324,1.117633 75.5573324,0.788917411 C76.3462498,0.525944941 77.1310583,0.328715588 77.9117578,0.197229353 C78.6924573,0.0657431176 79.3950869,0 80.0196465,0 C80.874307,0 81.6467886,0.102723621 82.3370914,0.308170864 C83.0273941,0.513618106 83.6149732,0.83000686 84.0998287,1.25733712 C84.5846842,1.68466739 84.9585982,2.23115705 85.2215707,2.89680612 C85.4845431,3.56245518 85.6160294,4.35548154 85.6160294,5.27588519 L85.6160294,12.4994102 C84.9914697,12.6802038 84.2354239,12.8609974 83.3478918,13.041791 C82.4603597,13.2225845 81.5235203,13.3129813 80.5373735,13.3129813 C79.682713,13.3129813 78.8979045,13.2349114 78.1829481,13.0787715 C77.4679917,12.9226316 76.8557589,12.6719859 76.3462498,12.3268345 C75.8367406,11.9816832 75.438173,11.5255903 75.1505468,10.9585559 C74.8629207,10.3915215 74.7191076,9.69710985 74.7191076,8.87532088 Z M80.5373735,10.2559263 C80.6852955,10.2559263 80.8989607,10.2394906 81.1783689,10.206619 C81.4577772,10.1737474 81.6632244,10.1408759 81.7947107,10.1080043 L81.7947107,7.39610073 L80.3894515,7.39610073 C79.8141992,7.39610073 79.3293437,7.51936908 78.934885,7.76590577 C78.5404263,8.01244246 78.343197,8.35759382 78.343197,8.80135987 C78.343197,9.13007546 78.417158,9.38893898 78.56508,9.57795045 C78.713002,9.76696191 78.8979045,9.91077498 79.1197876,10.0093897 C79.3416706,10.1080043 79.5799894,10.1737474 79.834744,10.206619 C80.0894985,10.2394906 80.3237084,10.2559263 80.5373735,10.2559263 Z" id="Shape"></path>
                <path d="M88.6391855,0.345151367 C89.4116672,0.246536691 90.2129114,0.164357794 91.0429183,0.0986146764 C91.8729251,0.0328715588 92.6577336,0 93.3973437,0 C95.386073,0 96.87762,0.373913981 97.8719846,1.12174194 C98.8663493,1.86956991 99.3635316,2.91735084 99.3635316,4.26508475 C99.3635316,4.77459392 99.3060064,5.21835996 99.1909559,5.59638289 C99.0759055,5.97440581 98.9362013,6.29901245 98.7718435,6.57020282 C98.6074857,6.84139318 98.4349101,7.05916725 98.2541165,7.22352505 C98.0733229,7.38788284 97.9254009,7.51936908 97.8103504,7.61798375 L100.620869,12.9924836 C100.292153,13.0582267 99.926457,13.1075341 99.5237804,13.1404056 C99.1211039,13.1732772 98.7307541,13.189713 98.3527312,13.189713 C97.8925293,13.189713 97.4487633,13.1732772 97.021433,13.1404056 C96.5941028,13.1075341 96.2407335,13.0582267 95.9613253,12.9924836 L93.224768,7.17421771 L93.5699194,6.97698836 C94.1451716,6.64827277 94.5396303,6.29901245 94.7532955,5.92920742 C94.9669606,5.55940238 95.0737932,5.16083473 95.0737932,4.73350447 C95.0737932,4.3061742 94.9464159,3.95691389 94.6916613,3.68572353 C94.4369067,3.41453317 94.0301212,3.27893799 93.4713047,3.27893799 C93.1590249,3.27893799 92.9207061,3.29537377 92.7563483,3.32824533 L92.7563483,13.0171373 C92.329018,13.0993162 91.9427772,13.1527325 91.5976258,13.1773861 C91.2524745,13.2020398 90.9484125,13.2143666 90.6854401,13.2143666 C90.4060318,13.2143666 90.1019699,13.2020398 89.7732543,13.1773861 C89.4445387,13.1527325 89.0665158,13.0993162 88.6391855,13.0171373 L88.6391855,0.345151367 Z" id="Path"></path>
                <path d="M101.449848,6.68114433 C101.449848,5.69499756 101.589552,4.7910297 101.868961,3.96924073 C102.148369,3.14745176 102.559263,2.44482219 103.101644,1.86135202 C103.644025,1.27788185 104.309674,0.82178897 105.098591,0.493073382 C105.887509,0.164357794 106.791477,0 107.810495,0 C108.155646,0 108.484362,0.0082178897 108.796642,0.0246536691 C109.108922,0.0410894485 109.417092,0.0739610073 109.721154,0.123268345 C110.025216,0.172575684 110.337496,0.246536691 110.657994,0.345151367 C110.978491,0.443766044 111.33597,0.567034389 111.730428,0.714956404 C111.7633,1.2737729 111.713993,1.82848046 111.582506,2.37907907 C111.45102,2.92967768 111.245573,3.46794945 110.966165,3.99389439 C110.686756,3.89527972 110.436111,3.81720977 110.214228,3.75968454 C109.992345,3.70215931 109.782789,3.65696092 109.585559,3.62408936 C109.38833,3.5912178 109.195209,3.57067307 109.006198,3.56245518 C108.817186,3.5542373 108.615848,3.55012835 108.402183,3.55012835 C107.613266,3.55012835 106.959943,3.78433821 106.442216,4.25275792 C105.924489,4.72117763 105.665626,5.53063977 105.665626,6.68114433 C105.665626,7.28926816 105.743696,7.79466838 105.899836,8.19734498 C106.055976,8.60002157 106.261423,8.91641032 106.516177,9.14651124 C106.770932,9.37661215 107.066776,9.54096994 107.403709,9.63958462 C107.740643,9.73819929 108.098121,9.78750663 108.476144,9.78750663 C108.952782,9.78750663 109.367785,9.74641718 109.721154,9.66423829 C110.074524,9.58205939 110.489527,9.45057315 110.966165,9.26977958 C111.245573,9.71354563 111.467456,10.210728 111.631814,10.7613266 C111.796171,11.3119252 111.87835,11.9405937 111.87835,12.6473322 C111.122305,12.9431763 110.432002,13.1321877 109.807442,13.2143666 C109.182883,13.2965455 108.558323,13.337635 107.933763,13.337635 C106.881873,13.337635 105.953252,13.1814951 105.147899,12.8692153 C104.342546,12.5569355 103.66457,12.1090605 103.113971,11.5255903 C102.563372,10.9421201 102.148369,10.2435995 101.868961,9.43002843 C101.589552,8.61645735 101.449848,7.70016265 101.449848,6.68114433 Z" id="Path"></path>
                <path d="M121.878495,8.33294016 L118.229752,8.33294016 L118.229752,13.0171373 C117.802422,13.0828804 117.416181,13.1321877 117.071029,13.1650593 C116.725878,13.1979309 116.413598,13.2143666 116.13419,13.2143666 C115.854782,13.2143666 115.542502,13.1979309 115.197351,13.1650593 C114.852199,13.1321877 114.474176,13.0828804 114.063282,13.0171373 L114.063282,0.295844029 C114.424869,0.213665132 114.782347,0.156139904 115.135716,0.123268345 C115.489086,0.0903967867 115.830128,0.0739610073 116.158844,0.0739610073 C116.471123,0.0739610073 116.808057,0.0903967867 117.169644,0.123268345 C117.531231,0.156139904 117.884601,0.213665132 118.229752,0.295844029 L118.229752,4.63488979 L121.878495,4.63488979 L121.878495,0.295844029 C122.240082,0.213665132 122.59756,0.156139904 122.95093,0.123268345 C123.304299,0.0903967867 123.645341,0.0739610073 123.974057,0.0739610073 C124.286337,0.0739610073 124.62327,0.0903967867 124.984857,0.123268345 C125.346444,0.156139904 125.699814,0.213665132 126.044965,0.295844029 L126.044965,13.0171373 C125.617635,13.0828804 125.231394,13.1321877 124.886243,13.1650593 C124.541091,13.1979309 124.228811,13.2143666 123.949403,13.2143666 C123.669995,13.2143666 123.357715,13.1979309 123.012564,13.1650593 C122.667412,13.1321877 122.289389,13.0828804 121.878495,13.0171373 L121.878495,8.33294016 Z" id="Path"></path>
            </g>
        </g>
    </g>
</svg>