<svg xmlns="http://www.w3.org/2000/svg" width="35" height="36" viewBox="0 0 35 36"><path fill="#6576FF" d="M17.0087494,34.1542969 C19.3302453,34.1542969 21.5175845,33.7060547 23.5707669,32.8095703 C25.6239492,31.9130859 27.4321496,30.6796875 28.995368,29.109375 C30.5585864,27.5390625 31.7834963,25.7255859 32.6700978,23.6689453 C33.5566993,21.6123047 34,19.4121094 34,17.0683594 C34,14.7363281 33.5537828,12.5390625 32.6613484,10.4765625 C31.7689141,8.4140625 30.5410877,6.59472656 28.9778693,5.01855469 C27.4146509,3.44238281 25.6064505,2.21191406 23.5532681,1.32714844 C21.5000858,0.442382813 19.3127466,0 16.9912506,0 C14.6697547,0 12.485332,0.442382813 10.4379825,1.32714844 C8.39063304,2.21191406 6.58243266,3.44238281 5.01338137,5.01855469 C3.44433007,6.59472656 2.21650369,8.4140625 1.32990221,10.4765625 C0.443300738,12.5390625 0,14.7363281 0,17.0683594 C0,19.4121094 0.44621719,21.6123047 1.33865157,23.6689453 C2.23108595,25.7255859 3.45891233,27.5390625 5.02213073,29.109375 C6.58534912,30.6796875 8.39063304,31.9130859 10.4379825,32.8095703 C12.485332,33.7060547 14.6755876,34.1542969 17.0087494,34.1542969 Z M17.0087494,31.0253906 C15.0838909,31.0253906 13.2815234,30.6650391 11.6016469,29.9443359 C9.92177046,29.2236328 8.44604563,28.2246094 7.17447247,26.9472656 C5.9028993,25.6699219 4.91130554,24.1875 4.1996912,22.5 C3.48807686,20.8125 3.13226969,19.0019531 3.13226969,17.0683594 C3.13226969,15.1347656 3.48807686,13.3242188 4.1996912,11.6367188 C4.91130554,9.94921875 5.9028993,8.46679688 7.17447247,7.18945312 C8.44604563,5.91210938 9.91885401,4.91601562 11.5928976,4.20117188 C13.2669412,3.48632812 15.0663922,3.12890625 16.9912506,3.12890625 C18.9161091,3.12890625 20.721393,3.48632812 22.4071024,4.20117188 C24.0928118,4.91601562 25.5714531,5.91210938 26.8430262,7.18945312 C28.1145994,8.46679688 29.1061932,9.94921875 29.8178075,11.6367188 C30.5294219,13.3242188 30.885229,15.1347656 30.885229,17.0683594 C30.885229,19.0019531 30.5294219,20.8125 29.8178075,22.5 C29.1061932,24.1875 28.1145994,25.6699219 26.8430262,26.9472656 C25.5714531,28.2246094 24.0957283,29.2236328 22.4158518,29.9443359 C20.7359753,30.6650391 18.9336078,31.0253906 17.0087494,31.0253906 Z M25.513124,17.0332031 C25.513124,16.6699219 25.3439698,16.3125 25.0056613,15.9609375 L19.4060731,10.3535156 C19.1610911,10.1191406 18.8461143,10.0019531 18.4611426,10.0019531 C18.0995025,10.0019531 17.7991079,10.125 17.5599588,10.3710938 C17.3208097,10.6171875 17.2012352,10.9160156 17.2012352,11.2675781 C17.2012352,11.6542969 17.335392,11.9765625 17.6037056,12.234375 L19.6510551,14.2382812 L21.5759135,15.8203125 L18.128667,15.6621094 L9.78178075,15.6621094 C9.38514325,15.6621094 9.06141705,15.7939453 8.81060216,16.0576172 C8.55978727,16.3212891 8.43437983,16.6464844 8.43437983,17.0332031 C8.43437983,17.4316406 8.55978727,17.7597656 8.81060216,18.0175781 C9.06141705,18.2753906 9.38514325,18.4042969 9.78178075,18.4042969 L18.128667,18.4042969 L21.5759135,18.2636719 L19.6510551,19.8632812 L17.6037056,21.8496094 C17.335392,22.0957031 17.2012352,22.4121094 17.2012352,22.7988281 C17.2012352,23.1621094 17.3208097,23.4697266 17.5599588,23.7216797 C17.7991079,23.9736328 18.0995025,24.0996094 18.4611426,24.0996094 C18.8344484,24.0996094 19.1494253,23.9707031 19.4060731,23.7128906 L25.0056613,18.1230469 C25.3439698,17.7832031 25.513124,17.4199219 25.513124,17.0332031 Z" transform="translate(.97 .926)"/></svg>