<svg xmlns="http://www.w3.org/2000/svg" width="180" height="45.615" viewBox="0 0 180 45.615"><g fill="none" fill-rule="evenodd"><rect width="3.63" height="43.878" fill="#FF0202" transform="translate(32.514 1.736)"/><rect width="3.63" height="38.985" fill="#FF0202" transform="translate(26.99 6.63)"/><rect width="3.63" height="32.356" fill="#FF0202" transform="translate(21.623 13.258)"/><g transform="translate(16.1)"><rect width="3.63" height="45.615" fill="#FF0202"/><rect width="3.63" height="18.006" y="27.609" fill="#0AABFF"/></g><g transform="translate(10.733 3.63)"><rect width="3.63" height="41.984" fill="#FF0202"/><rect width="3.63" height="17.993" y="23.991" fill="#0AABFF"/></g><g transform="translate(5.366 11.838)"><rect width="3.63" height="33.777" fill="#FF0202"/><rect width="3.63" height="17.935" y="15.842" fill="#0AABFF"/></g><g transform="translate(0 5.366)"><rect width="3.63" height="40.176" fill="#FF0202"/><rect width="3.63" height="18.022" y="22.227" fill="#0AABFF"/></g><path fill="#626262" fill-rule="nonzero" d="M60.2027311,11.8376748 L55.2499569,38.511902 L48.5827607,38.511902 L43.6299864,11.8376748 L47.4398128,11.8376748 L51.5544253,34.3583437 L52.240194,34.3583437 L56.3929048,11.8376748 L60.2027311,11.8376748 Z M62.0967591,38.511902 L62.0967591,16.888416 L65.7269794,16.888416 L65.7269794,38.511902 L62.0967591,38.511902 Z M63.8470427,15.8873657 L61.4179874,13.4583103 L63.846512,11.0297857 L66.2755674,13.458841 L63.8470427,15.8873657 Z M79.4586821,35.2970828 L79.4586821,38.511902 L67.9366787,38.511902 L67.9366787,35.4118978 L75.3920927,20.1032352 L68.1249467,20.1032352 L68.1249467,16.888416 L79.3833749,16.888416 L79.3833749,20.1032352 L72.0032681,35.2970828 L79.4586821,35.2970828 Z M85.8216802,38.511902 L85.8216802,28.0708473 L80.0900248,11.8376748 L83.9367734,11.8376748 L87.706587,23.6124408 L91.5148681,11.8376748 L95.4000842,11.8376748 L89.6684288,28.0708473 L89.6684288,38.511902 L85.8216802,38.511902 Z M100.75657,16.7305804 L102.039109,16.7305804 C106.339386,16.7305804 107.395595,18.0656876 107.395595,21.6132584 L107.395595,33.6292239 C107.395595,37.1386488 106.339386,38.511902 102.039109,38.511902 L100.75657,38.511902 C96.4185709,38.511902 95.4000842,37.1386488 95.4000842,33.6292239 L95.4000842,21.6132584 C95.4000842,18.0656876 96.4185709,16.7305804 100.75657,16.7305804 Z M100.554826,35.3551887 L101.886029,35.3551887 C103.021467,35.3551887 103.726221,35.0517765 103.726221,33.4967887 L103.765374,21.587858 C103.765374,19.9949437 103.06062,19.729458 101.925182,19.729458 L100.593979,19.729458 C99.4585407,19.729458 98.7537862,19.9949437 98.7537862,21.587858 L98.7146331,33.4967887 C98.7146331,35.0517765 99.4193877,35.3551887 100.554826,35.3551887 Z M113.67367,16.888416 L113.67367,33.6390037 C113.67367,34.7049502 114.20344,35.3140625 115.187299,35.3140625 L118.479442,35.3140625 L118.479442,16.888416 L122.074311,16.888416 L122.074311,38.3976934 C122.074311,38.3976934 117.155017,38.511902 115.75491,38.511902 L114.544007,38.511902 C111.781634,38.511902 110.078801,37.3698165 110.078801,34.2100465 L110.078801,16.888416 L113.67367,16.888416 Z M125.231025,38.511902 L125.231025,20.7334373 C125.231025,18.6396138 126.422886,16.888416 129.267975,16.888416 L129.652447,16.888416 C131.190333,16.888416 134.227657,17.1168331 134.227657,17.1168331 L134.227657,19.7816994 C134.227657,19.7816994 131.536357,19.9339774 130.42139,20.0101165 C129.037292,20.0862555 128.921951,20.5050202 128.883504,21.6851752 L128.883504,38.511902 L125.231025,38.511902 Z M142.37216,11.6798391 L143.445078,11.6798391 C148.004977,11.6798391 149.537717,12.6355721 149.537717,17.2995489 L149.537717,20.4343529 L145.705868,20.4343529 L145.705868,17.070173 C145.705868,15.0822484 144.747906,14.9293312 143.445078,14.9293312 L142.37216,14.9293312 C141.069332,14.9293312 140.11137,15.0822484 140.11137,17.070173 L140.11137,33.4705504 C140.11137,35.4584749 141.031013,35.4202456 142.37216,35.4202456 L143.445078,35.4202456 C144.786225,35.4202456 145.705868,35.4584749 145.705868,33.4705504 L145.705868,27.6979234 L142.755345,27.6979234 L142.755345,24.4484313 L149.537717,24.4484313 L149.537717,33.0500279 C149.537717,37.6757754 148.004977,38.6697376 143.445078,38.6697376 L142.37216,38.6697376 C137.812261,38.6697376 136.279521,37.6757754 136.279521,33.0500279 L136.279521,17.2995489 C136.279521,12.6355721 137.812261,11.6798391 142.37216,11.6798391 Z M157.419573,16.7305804 L158.702112,16.7305804 C163.002389,16.7305804 164.058598,18.0656876 164.058598,21.6132584 L164.058598,33.6292239 C164.058598,37.1386488 163.002389,38.511902 158.702112,38.511902 L157.419573,38.511902 C153.081574,38.511902 152.063087,37.1386488 152.063087,33.6292239 L152.063087,21.6132584 C152.063087,18.0656876 153.081574,16.7305804 157.419573,16.7305804 Z M157.691336,35.3551887 L159.022539,35.3551887 C160.157977,35.3551887 160.862732,35.0517765 160.862732,33.4967887 L160.901885,21.587858 C160.901885,19.9949437 160.19713,19.729458 159.061692,19.729458 L157.730489,19.729458 C156.595051,19.729458 155.890296,19.9949437 155.890296,21.587858 L155.851143,33.4967887 C155.851143,35.0517765 156.555898,35.3551887 157.691336,35.3551887 Z M180,16.888416 L175.848236,38.511902 L170.262226,38.511902 L166.110462,16.888416 L169.884793,16.888416 L172.942001,33.9958465 L173.168461,33.9958465 L176.225669,16.888416 L180,16.888416 Z"/></g></svg>