<?xml version="1.0" encoding="UTF-8"?>
<svg width="189.705078px" height="20.511169px" viewBox="0 0 189.705078 20.511169" version="1.1" xmlns="http://www.w3.org/2000/svg" xmlns:xlink="http://www.w3.org/1999/xlink">
    <title>btns-email</title>
    <g id="buttonz-2" stroke="none" stroke-width="1" fill="none" fill-rule="evenodd">
        <g id="Email-Dante" transform="translate(-25.294922, -17.426392)" fill="#FFFFFF">
            <g id="btns-email" transform="translate(25.294922, 17.426392)">
                <polygon id="Triangle" opacity="0.399762835" transform="translate(183.205078, 12.073608) rotate(90.000000) translate(-183.205078, -12.073608) " points="183.205078 5.5736084 189.705078 18.5736084 176.705078 18.5736084"></polygon>
                <g id="Email-Dante" transform="translate(37.905078, 1.077608)" fill-rule="nonzero">
                    <polygon id="Path" points="0 17.2840353 7.37357337 17.2840353 7.37357337 15.3161685 2.41834239 15.3161685 2.41834239 9.76820652 6.35407609 9.76820652 6.35407609 7.80033967 2.41834239 7.80033967 2.41834239 2.82139946 7.25502717 2.82139946 7.25502717 0.853532609 0 0.853532609"></polygon>
                    <path d="M9.1912817,17.2840353 L11.4910779,17.2840353 L11.4910779,7.34986413 C11.9415534,7.06535326 12.4157382,6.75713315 13.2455616,6.75713315 C14.0042572,6.75713315 14.3836051,7.11277174 14.3836051,7.82404891 L14.3836051,17.2840353 L16.6834013,17.2840353 L16.6834013,7.80033967 C16.6834013,7.634375 16.6834013,7.49211957 16.659692,7.37357337 C17.1101676,7.06535326 17.6791893,6.75713315 18.4141757,6.75713315 C19.2914176,6.75713315 19.5759284,7.16019022 19.5759284,7.82404891 L19.5759284,17.2840353 L21.8757246,17.2840353 L21.8757246,7.58695652 C21.8757246,5.59538043 20.9273551,4.81297554 19.4099638,4.81297554 C18.1059556,4.81297554 17.2050045,5.40570652 16.4700181,6.04585598 L16.3988904,6.04585598 C16.0195426,5.21603261 15.3556839,4.81297554 14.1939312,4.81297554 C13.0321784,4.81297554 12.1312274,5.38199728 11.4910779,5.92730978 L11.4199502,5.92730978 L11.4199502,4.97894022 L9.1912817,4.97894022 L9.1912817,17.2840353 Z" id="Path"></path>
                    <path d="M26.8467618,17.45 C27.7714221,17.45 28.553827,17.0469429 29.0043025,16.5490489 L29.0991395,16.5490489 L29.3125226,17.2840353 L31.2092618,17.2840353 L31.2092618,8.2982337 C31.2092618,5.9984375 30.2134737,4.81297554 27.7240036,4.81297554 C26.27774,4.81297554 25.187115,5.16861413 24.5469656,5.52425272 L24.5469656,7.18389946 C25.0922781,6.9705163 25.8983922,6.75713315 26.870471,6.75713315 C28.45899,6.75713315 28.9094656,7.27873641 28.9094656,8.77241848 L28.9094656,9.83933424 L26.9890172,10.1712636 C24.784058,10.6217391 23.693433,11.6412364 23.693433,13.9173234 C23.693433,16.2882473 24.8551857,17.45 26.8467618,17.45 Z M27.5817482,15.7192255 C26.4437047,15.7192255 26.0406476,15.0553668 26.0406476,13.6565217 C26.0406476,12.4236413 26.5859601,11.8072011 27.7477129,11.6412364 L28.9094656,11.498981 L28.9094656,15.3398777 C28.6249547,15.5295516 28.2218976,15.7192255 27.5817482,15.7192255 Z" id="Shape"></path>
                    <path d="M33.5722826,17.2840353 L35.8720788,17.2840353 L35.8720788,4.97894022 L33.5722826,4.97894022 L33.5722826,17.2840353 Z M33.5485734,3.01107337 L35.895788,3.01107337 L35.895788,0.687567935 L33.5485734,0.687567935 L33.5485734,3.01107337 Z" id="Shape"></path>
                    <polygon id="Path" points="38.2825181 17.2840353 40.5823143 17.2840353 40.5823143 0 38.2825181 0"></polygon>
                    <path d="M46.5175272,17.2840353 L50.1213315,17.2840353 C53.938519,17.2840353 55.8826766,14.6048913 55.8826766,9.50740489 L55.8826766,8.1796875 C55.8826766,2.89252717 53.7725543,0.853532609 50.1213315,0.853532609 L46.5175272,0.853532609 L46.5175272,17.2840353 Z M48.9358696,15.3161685 L48.9358696,2.82139946 L50.0027853,2.82139946 C52.0891984,2.82139946 53.3220788,4.07798913 53.3220788,8.1796875 L53.3220788,9.83933424 C53.3220788,13.7039402 52.3262908,15.3161685 50.16875,15.3161685 L48.9358696,15.3161685 Z" id="Shape"></path>
                    <path d="M60.379529,17.45 C61.3041893,17.45 62.0865942,17.0469429 62.5370697,16.5490489 L62.6319067,16.5490489 L62.8452899,17.2840353 L64.742029,17.2840353 L64.742029,8.2982337 C64.742029,5.9984375 63.7462409,4.81297554 61.2567708,4.81297554 C59.8105072,4.81297554 58.7198822,5.16861413 58.0797328,5.52425272 L58.0797328,7.18389946 C58.6250453,6.9705163 59.4311594,6.75713315 60.4032382,6.75713315 C61.9917572,6.75713315 62.4422328,7.27873641 62.4422328,8.77241848 L62.4422328,9.83933424 L60.5217844,10.1712636 C58.3168252,10.6217391 57.2262002,11.6412364 57.2262002,13.9173234 C57.2262002,16.2882473 58.3879529,17.45 60.379529,17.45 Z M61.1145154,15.7192255 C59.9764719,15.7192255 59.5734149,15.0553668 59.5734149,13.6565217 C59.5734149,12.4236413 60.1187274,11.8072011 61.2804801,11.6412364 L62.4422328,11.498981 L62.4422328,15.3398777 C62.1577219,15.5295516 61.7546649,15.7192255 61.1145154,15.7192255 Z" id="Shape"></path>
                    <path d="M67.0813406,17.2840353 L69.3811368,17.2840353 L69.3811368,7.34986413 C69.7367754,7.0890625 70.4480525,6.75713315 71.3015851,6.75713315 C72.1314085,6.75713315 72.5818841,7.04164402 72.5818841,7.87146739 L72.5818841,17.2840353 L74.8816803,17.2840353 L74.8816803,7.61066576 C74.8816803,5.69021739 73.9333107,4.81297554 72.3210824,4.81297554 C70.993365,4.81297554 70.1161232,5.35828804 69.3811368,5.92730978 L69.3100091,5.92730978 L69.3100091,4.97894022 L67.0813406,4.97894022 L67.0813406,17.2840353 Z" id="Path"></path>
                    <path d="M80.208356,17.4262908 C80.9907609,17.4262908 81.702038,17.2129076 82.0102582,16.952106 L82.0102582,15.4110054 C81.7494565,15.4821332 81.5123641,15.5769701 81.0618886,15.5769701 C80.3269022,15.5769701 79.9949728,15.3398777 79.9949728,14.3915082 L79.9949728,6.80455163 L81.9391304,6.80455163 L81.9391304,4.97894022 L79.9949728,4.97894022 L79.9949728,2.18125 L77.6951766,2.18125 L77.6951766,4.97894022 L76.5571332,4.97894022 L76.5571332,6.80455163 L77.6951766,6.80455163 L77.6951766,14.7471467 C77.6951766,16.7387228 78.5961277,17.4262908 80.208356,17.4262908 Z" id="Path"></path>
                    <path d="M88.0956295,17.45 C89.3996377,17.45 90.5139719,16.9283967 91.0592844,16.4305027 L91.0592844,14.7945652 C90.419135,15.173913 89.3996377,15.6006793 88.3801404,15.6006793 C86.4834013,15.6006793 85.7721241,14.4863451 85.7484149,11.9494565 L91.3437953,11.9494565 L91.3437953,10.6217391 C91.3437953,6.37778533 90.1346241,4.81297554 87.4554801,4.81297554 C84.5866621,4.81297554 83.4012002,6.87567935 83.4012002,10.7877038 L83.4012002,11.5938179 C83.4012002,15.6480978 84.8474638,17.45 88.0956295,17.45 Z M87.4080616,6.63858696 C88.7120697,6.63858696 89.0914176,7.61066576 89.0914176,10.2423913 L85.7484149,10.2423913 C85.7484149,7.68179348 86.0803442,6.63858696 87.4080616,6.63858696 Z" id="Shape"></path>
                </g>
                <path d="M13.1407888,11.5427636 C13.6174065,11.5427636 14.1088819,11.2933601 14.6152152,10.794553 L24.8795587,0.62558501 C24.4288935,0.208528337 23.6217059,0 22.4579958,0 L3.47010876,0 C2.46393034,0 1.75925509,0.193540768 1.356083,0.580622304 L11.6766785,10.794553 C12.1754856,11.2933601 12.6635223,11.5427636 13.1407888,11.5427636 Z M0.309872849,18.5559725 L8.71108635,10.2448791 L0.302865674,1.94643749 C0.100955225,2.30769629 0,2.90674487 0,3.74358323 L0,16.7562964 C0,17.5994932 0.10329095,18.1993852 0.309872849,18.5559725 Z M3.78874058,20.511169 L22.7768222,20.511169 C23.7883209,20.511169 24.4992248,20.3157467 24.9095338,19.924902 L16.3475446,11.4417435 L15.590575,12.1977398 C14.7951309,12.9615219 13.9785355,13.3434129 13.1407888,13.3434129 C12.3007064,13.3434129 11.4833973,12.9615219 10.6888615,12.1977398 L9.9316973,11.4429114 L1.3934546,19.9138073 C1.85722577,20.3120484 2.65565443,20.511169 3.78874058,20.511169 Z M25.9594422,18.5446832 C26.1509716,18.1882256 26.2467364,17.5920967 26.2467364,16.7562964 L26.2467364,3.74358323 C26.2467364,2.92179732 26.1495442,2.3339732 25.95516,1.98011086 L17.5808074,10.2448791 L25.9594422,18.5446832 Z" id="email" fill-rule="nonzero"></path>
            </g>
        </g>
    </g>
</svg>