<svg xmlns="http://www.w3.org/2000/svg" width="185.47" height="24.86" viewBox="0 0 185.47 24.86"><g fill="#FFF" fill-rule="evenodd"><polygon points="178.97 8.026 185.47 21.026 172.47 21.026" opacity=".4" transform="rotate(90 178.97 14.526)"/><g fill-rule="nonzero" transform="translate(30.67 4.394)"><path d="M0 16.632 2.448 16.632 2.448 10.224 3.816 10.224C6.912 10.224 8.424 8.448 8.424 5.064 8.424 1.392 6.984 0 3.84 0L0 0 0 16.632ZM2.448 8.28 2.448 1.968 3.504 1.968C5.16 1.968 5.856 2.712 5.856 5.112 5.856 7.32 5.232 8.28 3.504 8.28L2.448 8.28ZM10.1765143 16.632 13.8245143 16.632C17.6885143 16.632 19.6565143 13.92 19.6565143 8.76L19.6565143 7.416C19.6565143 2.064 17.5205143 0 13.8245143 0L10.1765143 0 10.1765143 16.632ZM12.6245143 14.64 12.6245143 1.992 13.7045143 1.992C15.8165143 1.992 17.0645143 3.264 17.0645143 7.416L17.0645143 9.096C17.0645143 13.008 16.0565143 14.64 13.8725143 14.64L12.6245143 14.64Z"/><polygon points="21.625 16.632 24.073 16.632 24.073 9.384 27.937 9.384 27.937 7.392 24.073 7.392 24.073 1.992 28.825 1.992 28.825 0 21.625 0"/><path d="M33.2420571 16.632 35.5700571 16.632 35.5700571 6.984C36.1460571 6.504 36.7940571 6.24 37.7300571 6.24 37.9460571 6.24 38.2580571 6.264 38.3780571 6.288L38.3780571 4.08C38.2580571 4.032 38.0660571 4.008 37.8020571 4.008 36.8420571 4.008 36.1220571 4.68 35.5700571 5.448L35.4980571 5.448 35.4980571 4.176 33.2420571 4.176 33.2420571 16.632ZM43.8985714 16.8C45.2185714 16.8 46.3465714 16.272 46.8985714 15.768L46.8985714 14.112C46.2505714 14.496 45.2185714 14.928 44.1865714 14.928 42.2665714 14.928 41.5465714 13.8 41.5225714 11.232L47.1865714 11.232 47.1865714 9.888C47.1865714 5.592 45.9625714 4.008 43.2505714 4.008 40.3465714 4.008 39.1465714 6.096 39.1465714 10.056L39.1465714 10.872C39.1465714 14.976 40.6105714 16.8 43.8985714 16.8ZM43.2025714 5.856C44.5225714 5.856 44.9065714 6.84 44.9065714 9.504L41.5225714 9.504C41.5225714 6.912 41.8585714 5.856 43.2025714 5.856ZM50.9790857 16.8C53.5470857 16.8 54.7950857 15.312 54.7950857 12.816 54.7950857 10.8 53.8590857 10.032 52.4670857 9.336L51.6990857 8.976C50.8590857 8.568 50.5230857 8.232 50.5230857 7.392 50.5230857 6.312 51.0750857 5.88 52.2030857 5.88 53.0430857 5.88 53.6670857 6.048 54.2190857 6.264L54.2190857 4.44C53.7630857 4.176 53.0670857 4.008 52.0110857 4.008 49.7310857 4.008 48.3390857 5.28 48.3390857 7.608 48.3390857 9.408 49.2510857 10.392 50.4270857 10.944L51.1710857 11.28C52.1070857 11.736 52.5390857 12.12 52.5390857 13.104 52.5390857 14.232 52.1070857 14.928 50.6910857 14.928 49.7310857 14.928 48.9390857 14.64 48.3870857 14.376L48.3870857 16.176C48.9630857 16.56 49.8270857 16.8 50.9790857 16.8ZM58.8276 16.8C60.0996 16.8 61.1316 16.152 61.7316 15.696L61.8276 15.696 61.9956 16.632 64.0116 16.632 64.0116 4.176 61.6836 4.176 61.6836 14.232C61.4196 14.448 60.6036 14.832 59.8596 14.832 58.7316 14.832 58.5396 14.352 58.5396 13.704L58.5396 4.176 56.2116 4.176 56.2116 13.704C56.2116 15.504 56.8356 16.8 58.8276 16.8ZM66.0521143 16.632 68.3801143 16.632 68.3801143 6.576C68.8361143 6.288 69.3161143 5.976 70.1561143 5.976 70.9241143 5.976 71.3081143 6.336 71.3081143 7.056L71.3081143 16.632 73.6361143 16.632 73.6361143 7.032C73.6361143 6.864 73.6361143 6.72 73.6121143 6.6 74.0681143 6.288 74.6441143 5.976 75.3881143 5.976 76.2761143 5.976 76.5641143 6.384 76.5641143 7.056L76.5641143 16.632 78.8921143 16.632 78.8921143 6.816C78.8921143 4.8 77.9321143 4.008 76.3961143 4.008 75.0761143 4.008 74.1641143 4.608 73.4201143 5.256L73.3481143 5.256C72.9641143 4.416 72.2921143 4.008 71.1161143 4.008 69.9401143 4.008 69.0281143 4.584 68.3801143 5.136L68.3081143 5.136 68.3081143 4.176 66.0521143 4.176 66.0521143 16.632ZM85.2526286 16.8C86.5726286 16.8 87.7006286 16.272 88.2526286 15.768L88.2526286 14.112C87.6046286 14.496 86.5726286 14.928 85.5406286 14.928 83.6206286 14.928 82.9006286 13.8 82.8766286 11.232L88.5406286 11.232 88.5406286 9.888C88.5406286 5.592 87.3166286 4.008 84.6046286 4.008 81.7006286 4.008 80.5006286 6.096 80.5006286 10.056L80.5006286 10.872C80.5006286 14.976 81.9646286 16.8 85.2526286 16.8ZM84.5566286 5.856C85.8766286 5.856 86.2606286 6.84 86.2606286 9.504L82.8766286 9.504C82.8766286 6.912 83.2126286 5.856 84.5566286 5.856Z"/></g><path fill-rule="nonzero" d="M3.6651467,24.859695 L15.9416922,24.859695 C17.1588344,24.859695 18.0739778,24.5494387 18.6871222,23.9289261 C19.3002667,23.3084135 19.6068389,22.3855209 19.6068389,21.1602483 L19.6068389,10.7631528 L11.1179674,10.7631528 C9.67508025,10.7631528 8.95363669,10.0417728 8.95363669,8.59901269 L8.95363669,0 L3.6651467,0 C2.45537262,0 1.54207132,0.312066579 0.925242789,0.936199737 C0.308414263,1.5603329 0,2.48503578 0,3.71030838 L0,21.1602483 C0,22.3855209 0.308414263,23.3084135 0.925242789,23.9289261 C1.54207132,24.5494387 2.45537262,24.859695 3.6651467,24.859695 Z M11.2342063,9.1321873 L19.4774516,9.1321873 C19.4472168,8.87811315 19.3457142,8.62565872 19.1729438,8.37482401 C19.0001734,8.1239893 18.7692835,7.85406727 18.4802741,7.56505792 L12.1460149,1.13056646 C11.8681848,0.845495265 11.6022327,0.615081767 11.3481586,0.439325971 C11.0940844,0.263570175 10.8395656,0.156573197 10.5846022,0.118335037 L10.5846022,8.4839171 C10.5846022,8.91609723 10.8011369,9.1321873 11.2342063,9.1321873 Z"/></g></svg>