<svg xmlns="http://www.w3.org/2000/svg" width="186" height="25" viewBox="0 0 186 25"><g fill="#FFF" fill-rule="evenodd"><polygon points="179.5 8.093 186 21.093 173 21.093" opacity=".4" transform="rotate(90 179.5 14.593)"/><g fill-rule="nonzero" transform="translate(41.336 4.293)"><polygon points="3.072 16.8 5.52 16.8 5.52 2.16 8.592 2.16 8.592 .168 0 .168 0 2.16 3.072 2.16"/><path d="M11.032 16.8 13.432 16.8 14.488 11.208C14.656 10.464 14.752 9.744 14.824 9.192 14.872 8.88 14.92 8.592 14.944 8.304L14.992 8.304C15.016 8.568 15.04 8.856 15.088 9.168 15.16 9.72 15.256 10.44 15.424 11.208L16.552 16.8 19 16.8 21.352 4.344 19.192 4.344 18.136 10.992C18.016 11.76 17.944 12.408 17.872 12.888L17.776 13.632 17.704 13.632 17.608 12.912C17.536 12.456 17.488 11.808 17.32 10.968L16.12 4.344 14.008 4.344 12.856 10.968C12.688 11.736 12.616 12.384 12.544 12.864L12.448 13.632 12.4 13.632 12.328 12.888 12.04 10.968 10.912 4.344 8.56 4.344 11.032 16.8ZM22.976 16.8 25.304 16.8 25.304 4.344 22.976 4.344 22.976 16.8ZM22.952 2.352 25.328 2.352 25.328 0 22.952 0 22.952 2.352ZM30.744 16.944C31.536 16.944 32.256 16.728 32.568 16.464L32.568 14.904C32.304 14.976 32.064 15.072 31.608 15.072 30.864 15.072 30.528 14.832 30.528 13.872L30.528 6.192 32.496 6.192 32.496 4.344 30.528 4.344 30.528 1.512 28.2 1.512 28.2 4.344 27.048 4.344 27.048 6.192 28.2 6.192 28.2 14.232C28.2 16.248 29.112 16.944 30.744 16.944ZM37.264 16.944C38.056 16.944 38.776 16.728 39.088 16.464L39.088 14.904C38.824 14.976 38.584 15.072 38.128 15.072 37.384 15.072 37.048 14.832 37.048 13.872L37.048 6.192 39.016 6.192 39.016 4.344 37.048 4.344 37.048 1.512 34.72 1.512 34.72 4.344 33.568 4.344 33.568 6.192 34.72 6.192 34.72 14.232C34.72 16.248 35.632 16.944 37.264 16.944ZM45.248 16.968C46.568 16.968 47.696 16.44 48.248 15.936L48.248 14.28C47.6 14.664 46.568 15.096 45.536 15.096 43.616 15.096 42.896 13.968 42.872 11.4L48.536 11.4 48.536 10.056C48.536 5.76 47.312 4.176 44.6 4.176 41.696 4.176 40.496 6.264 40.496 10.224L40.496 11.04C40.496 15.144 41.96 16.968 45.248 16.968ZM44.552 6.024C45.872 6.024 46.256 7.008 46.256 9.672L42.872 9.672C42.872 7.08 43.208 6.024 44.552 6.024ZM50.52 16.8 52.848 16.8 52.848 7.152C53.424 6.672 54.072 6.408 55.008 6.408 55.224 6.408 55.536 6.432 55.656 6.456L55.656 4.248C55.536 4.2 55.344 4.176 55.08 4.176 54.12 4.176 53.4 4.848 52.848 5.616L52.776 5.616 52.776 4.344 50.52 4.344 50.52 16.8Z"/></g><path fill-rule="nonzero" d="M28.1249999,3.94736842 C29.7371812,3.16997182 30.7823534,1.94908758 30.8035715,0 C29.99911,1.18626675 28.5699452,1.7117106 26.7857144,2.63157896 C25.8839037,0.762820831 24.1597511,0 22.7678572,0 C18.6166515,0 15.6527875,2.8305969 16.0714286,6.57894738 C15.6527875,6.81346125 15.740521,7.28821522 16.0714286,7.89473685 C10.3544515,7.4915929 5.49033237,4.98306217 2.67857144,1.31578947 C1.69045782,2.10177537 1.34206712,3.16997182 1.33928571,3.94736842 C1.34206712,6.52539439 2.52710412,8.45779142 4.01785714,9.21052632 C3.18955507,9.55936899 2.17807767,9.27130213 1.33928571,9.21052632 C1.28993566,9.69474804 1.44696578,10.4408783 1.33928571,10.5263158 C2.5449051,13.1360962 4.37522781,14.6271203 6.69642858,14.4736842 C6.01291844,15.2038722 5.45536615,15.2879432 5.35714287,15.7894738 C4.42735928,15.2879432 4.00903612,15.2372533 4.01785714,15.7894738 C4.4623255,17.661095 6.88453095,19.491494 9.37500001,19.7368422 C7.49485044,21.2545126 4.67148707,22.2547104 1.33928571,22.3684211 C1.04517212,22.2547104 0.540387044,22.2200931 0,22.3684211 C2.92826203,23.9497306 6.39691111,25 10.7142857,25 C20.412008,25 26.7745887,18.0678503 28.1249999,10.5263158 C28.7269754,9.57667772 28.8655688,8.30510361 29.4642858,6.57894738 C30.1383392,5.33912764 31.2718805,4.22024133 32.1428571,2.63157896 C30.9743497,3.45803868 29.7028507,3.79679542 28.1249999,3.94736842 Z"/></g></svg>