<svg xmlns="http://www.w3.org/2000/svg" width="35" height="36" viewBox="0 0 35 36"><path fill="#6576FF" d="M17.0087494,34.1542969 C19.3302453,34.1542969 21.5175845,33.7060547 23.5707669,32.8095703 C25.6239492,31.9130859 27.4321496,30.6796875 28.995368,29.109375 C30.5585864,27.5390625 31.7834963,25.7255859 32.6700978,23.6689453 C33.5566993,21.6123047 34,19.4121094 34,17.0683594 C34,14.7363281 33.5537828,12.5390625 32.6613484,10.4765625 C31.7689141,8.4140625 30.5410877,6.59472656 28.9778693,5.01855469 C27.4146509,3.44238281 25.6064505,2.21191406 23.5532681,1.32714844 C21.5000858,0.442382813 19.3127466,0 16.9912506,0 C14.6697547,0 12.485332,0.442382813 10.4379825,1.32714844 C8.39063304,2.21191406 6.58243266,3.44238281 5.01338137,5.01855469 C3.44433007,6.59472656 2.21650369,8.4140625 1.32990221,10.4765625 C0.443300738,12.5390625 0,14.7363281 0,17.0683594 C0,19.4121094 0.44621719,21.6123047 1.33865157,23.6689453 C2.23108595,25.7255859 3.45891233,27.5390625 5.02213073,29.109375 C6.58534912,30.6796875 8.39063304,31.9130859 10.4379825,32.8095703 C12.485332,33.7060547 14.6755876,34.1542969 17.0087494,34.1542969 Z M25.8455996,17.0332031 C25.8455996,17.4433594 25.6647796,17.8242188 25.3031395,18.1757812 L19.5110654,23.9589844 C19.2427518,24.2167969 18.9161091,24.3457031 18.5311374,24.3457031 C18.1461657,24.3457031 17.8282724,24.2167969 17.5774575,23.9589844 C17.3266426,23.7011719 17.2012352,23.3789062 17.2012352,22.9921875 C17.2012352,22.6054688 17.3412249,22.2773438 17.6212043,22.0078125 L19.7210499,19.96875 L21.733402,18.3164062 L18.1461657,18.4746094 L9.53679876,18.4746094 C9.12849545,18.4746094 8.79310345,18.3369141 8.53062275,18.0615234 C8.26814205,17.7861328 8.1369017,17.4433594 8.1369017,17.0332031 C8.1369017,16.6230469 8.2710585,16.2861328 8.5393721,16.0224609 C8.80768571,15.7587891 9.14016126,15.6269531 9.53679876,15.6269531 L18.1461657,15.6269531 L21.7159032,15.7675781 L19.7210499,14.1328125 L17.6212043,12.0761719 C17.3412249,11.7832031 17.2012352,11.4550781 17.2012352,11.0917969 C17.2012352,10.7050781 17.3266426,10.3828125 17.5774575,10.125 C17.8282724,9.8671875 18.1461657,9.73828125 18.5311374,9.73828125 C18.9277749,9.73828125 19.2544176,9.8671875 19.5110654,10.125 L25.3031395,15.9257812 C25.6647796,16.2773438 25.8455996,16.6464844 25.8455996,17.0332031 Z" transform="translate(.97 .926)"/></svg>