<svg xmlns="http://www.w3.org/2000/svg" width="35" height="35" viewBox="0 0 35 35"><path fill="#6576FF" d="M17.0087494,34 C19.3302453,34 21.5175845,33.5537828 23.5707669,32.6613484 C25.6239492,31.7689141 27.4321496,30.5410877 28.995368,28.9778693 C30.5585864,27.4146509 31.7834963,25.609367 32.6700978,23.5620175 C33.5566993,21.514668 34,19.3244124 34,16.9912506 C34,14.6697547 33.5537828,12.4824155 32.6613484,10.4292331 C31.7689141,8.37605078 30.5410877,6.56493395 28.9778693,4.99588266 C27.4146509,3.42683136 25.6064505,2.20192143 23.5532681,1.32115286 C21.5000858,0.440384285 19.3127466,0 16.9912506,0 C14.6697547,0 12.485332,0.440384285 10.4379825,1.32115286 C8.39063304,2.20192143 6.58243266,3.42683136 5.01338137,4.99588266 C3.44433007,6.56493395 2.21650369,8.37605078 1.32990221,10.4292331 C0.443300738,12.4824155 0,14.6697547 0,16.9912506 C0,19.3244124 0.44621719,21.514668 1.33865157,23.5620175 C2.23108595,25.609367 3.45891233,27.4146509 5.02213073,28.9778693 C6.58534912,30.5410877 8.39063304,31.7689141 10.4379825,32.6613484 C12.485332,33.5537828 14.6755876,34 17.0087494,34 Z M17.0087494,30.885229 C15.0838909,30.885229 13.2815234,30.5265054 11.6016469,29.8090582 C9.92177046,29.0916109 8.44604563,28.0971007 7.17447247,26.8255275 C5.9028993,25.5539544 4.91130554,24.0782295 4.1996912,22.3983531 C3.48807686,20.7184766 3.13226969,18.9161091 3.13226969,16.9912506 C3.13226969,15.0663922 3.48807686,13.2640247 4.1996912,11.5841482 C4.91130554,9.90427174 5.9028993,8.42854692 7.17447247,7.15697375 C8.44604563,5.88540058 9.91885401,4.89380683 11.5928976,4.18219249 C13.2669412,3.47057814 15.0663922,3.11477097 16.9912506,3.11477097 C18.9161091,3.11477097 20.721393,3.47057814 22.4071024,4.18219249 C24.0928118,4.89380683 25.5714531,5.88540058 26.8430262,7.15697375 C28.1145994,8.42854692 29.1061932,9.90427174 29.8178075,11.5841482 C30.5294219,13.2640247 30.885229,15.0663922 30.885229,16.9912506 C30.885229,18.9161091 30.5294219,20.7184766 29.8178075,22.3983531 C29.1061932,24.0782295 28.1145994,25.5539544 26.8430262,26.8255275 C25.5714531,28.0971007 24.0957283,29.0916109 22.4158518,29.8090582 C20.7359753,30.5265054 18.9336078,30.885229 17.0087494,30.885229 Z M8.48687597,16.9562532 C8.48687597,17.3412249 8.65603019,17.702865 8.99433865,18.0411734 L14.6114256,23.6057643 C14.8680734,23.8624121 15.1772174,23.990736 15.5388574,23.990736 C15.9004975,23.990736 16.2008921,23.8653285 16.4400412,23.6145136 C16.6791903,23.3636987 16.7987648,23.0574713 16.7987648,22.6958312 C16.7987648,22.3108595 16.664608,21.9958827 16.3962944,21.7509007 L14.3664436,19.7735461 L12.4240865,18.1811631 L15.871333,18.3211529 L24.235718,18.3211529 C24.6323555,18.3211529 24.9531652,18.192829 25.1981472,17.9361812 C25.4431292,17.6795334 25.5656202,17.3528907 25.5656202,16.9562532 C25.5656202,16.5712815 25.4402127,16.2475553 25.1893978,15.9850746 C24.9385829,15.7225939 24.6206897,15.5913536 24.235718,15.5913536 L15.871333,15.5913536 L12.4415852,15.748842 L14.3664436,14.1739578 L16.3962944,12.1791045 C16.664608,11.9224567 16.7987648,11.6016469 16.7987648,11.2166752 C16.7987648,10.866701 16.6791903,10.5692229 16.4400412,10.3242409 C16.2008921,10.0792589 15.9004975,9.95676788 15.5388574,9.95676788 C15.1655516,9.95676788 14.8564076,10.073426 14.6114256,10.3067422 L8.99433865,15.8888317 C8.65603019,16.238806 8.48687597,16.5946131 8.48687597,16.9562532 Z" transform="translate(.97 .926)"/></svg>