<svg xmlns="http://www.w3.org/2000/svg" width="35" height="35" viewBox="0 0 35 35"><path fill="#6576FF" d="M17.0087494,34 C19.3302453,34 21.5175845,33.5537828 23.5707669,32.6613484 C25.6239492,31.7689141 27.4321496,30.5410877 28.995368,28.9778693 C30.5585864,27.4146509 31.7834963,25.609367 32.6700978,23.5620175 C33.5566993,21.514668 34,19.3244124 34,16.9912506 C34,14.6697547 33.5537828,12.4824155 32.6613484,10.4292331 C31.7689141,8.37605078 30.5410877,6.56493395 28.9778693,4.99588266 C27.4146509,3.42683136 25.6064505,2.20192143 23.5532681,1.32115286 C21.5000858,0.440384285 19.3127466,0 16.9912506,0 C14.6697547,0 12.485332,0.440384285 10.4379825,1.32115286 C8.39063304,2.20192143 6.58243266,3.42683136 5.01338137,4.99588266 C3.44433007,6.56493395 2.21650369,8.37605078 1.32990221,10.4292331 C0.443300738,12.4824155 0,14.6697547 0,16.9912506 C0,19.3244124 0.44621719,21.514668 1.33865157,23.5620175 C2.23108595,25.609367 3.45891233,27.4146509 5.02213073,28.9778693 C6.58534912,30.5410877 8.39063304,31.7689141 10.4379825,32.6613484 C12.485332,33.5537828 14.6755876,34 17.0087494,34 Z M8.17189913,16.9562532 C8.17189913,16.5712815 8.35271916,16.2038085 8.71435924,15.8538343 L14.5064334,10.0792589 C14.7630811,9.82261108 15.0838909,9.69428718 15.4688626,9.69428718 C15.8538343,9.69428718 16.1717276,9.82261108 16.4225425,10.0792589 C16.6733574,10.3359067 16.7987648,10.6567164 16.7987648,11.0416881 C16.7987648,11.4033282 16.6587751,11.7299708 16.3787957,12.0216161 L14.2964488,14.0689655 L12.2840968,15.6963459 L15.871333,15.5563562 L24.4632012,15.5563562 C24.8715045,15.5563562 25.209813,15.6875965 25.4781266,15.9500772 C25.7464402,16.2125579 25.880597,16.5479499 25.880597,16.9562532 C25.880597,17.3645565 25.7464402,17.7057814 25.4781266,17.9799279 C25.209813,18.2540745 24.8715045,18.3911477 24.4632012,18.3911477 L15.871333,18.3911477 L12.2840968,18.2336593 L14.2789501,19.8785383 L16.3787957,21.9083891 C16.6587751,22.1767027 16.7987648,22.5033453 16.7987648,22.888317 C16.7987648,23.2732887 16.6733574,23.5940985 16.4225425,23.8507463 C16.1717276,24.1073941 15.8538343,24.235718 15.4688626,24.235718 C15.0955567,24.235718 14.774747,24.1073941 14.5064334,23.8507463 L8.71435924,18.0936696 C8.35271916,17.7436953 8.17189913,17.3645565 8.17189913,16.9562532 Z" transform="translate(.97 .926)"/></svg>